<?xml version="1.0" encoding="utf-8"?>
<!-- Generator: Adobe Illustrator 25.1.0, SVG Export Plug-In . SVG Version: 6.00 Build 0)  -->
<svg version="1.1" id="Layer_1" xmlns="http://www.w3.org/2000/svg" xmlns:xlink="http://www.w3.org/1999/xlink" x="0px" y="0px"
	 viewBox="0 0 190 55" style="enable-background:new 0 0 190 55;" xml:space="preserve">
<style type="text/css">
	.st0{fill:#FFFFFF;}
	.st1{fill:#5EC7F1;}
	.st2{fill:url(#SVGID_1_);}
	.st3{fill:url(#SVGID_2_);}
	.st4{fill:url(#SVGID_3_);}
</style>
<g>
	<g>
		<path class="st0" d="M182.62,55H7.38C3.31,55,0,51.69,0,47.62V7.38C0,3.31,3.31,0,7.38,0h175.24c4.08,0,7.38,3.31,7.38,7.38v40.24
			C190,51.69,186.69,55,182.62,55z"/>
	</g>
	<path d="M95.85,30.14c-3.33,0-6.04,2.53-6.04,6.03c0,3.47,2.71,6.03,6.04,6.03c3.33,0,6.04-2.56,6.04-6.03
		C101.89,32.68,99.18,30.14,95.85,30.14z M95.85,39.82c-1.82,0-3.4-1.51-3.4-3.65c0-2.17,1.57-3.65,3.4-3.65
		c1.82,0,3.4,1.48,3.4,3.65C99.25,38.32,97.68,39.82,95.85,39.82z M82.68,30.14c-3.33,0-6.04,2.53-6.04,6.03
		c0,3.47,2.71,6.03,6.04,6.03c3.33,0,6.04-2.56,6.04-6.03C88.72,32.68,86,30.14,82.68,30.14z M82.68,39.82
		c-1.82,0-3.4-1.51-3.4-3.65c0-2.17,1.57-3.65,3.4-3.65c1.82,0,3.4,1.48,3.4,3.65C86.07,38.32,84.5,39.82,82.68,39.82z M67,31.99
		v2.56h6.11c-0.18,1.44-0.66,2.49-1.39,3.22c-0.89,0.89-2.28,1.87-4.72,1.87c-3.76,0-6.7-3.04-6.7-6.8c0-3.77,2.94-6.8,6.7-6.8
		c2.03,0,3.51,0.8,4.6,1.83l1.8-1.8c-1.53-1.46-3.56-2.58-6.4-2.58c-5.15,0-9.48,4.2-9.48,9.36c0,5.16,4.33,9.36,9.48,9.36
		c2.78,0,4.88-0.91,6.52-2.62c1.69-1.69,2.21-4.06,2.21-5.98c0-0.59-0.05-1.14-0.14-1.6H67z M131.1,33.98
		c-0.5-1.35-2.03-3.83-5.15-3.83c-3.1,0-5.68,2.44-5.68,6.03c0,3.38,2.55,6.03,5.97,6.03c2.76,0,4.35-1.69,5.01-2.67l-2.05-1.37
		c-0.68,1-1.62,1.67-2.96,1.67c-1.34,0-2.3-0.62-2.92-1.83l8.05-3.33L131.1,33.98z M122.9,35.99c-0.07-2.33,1.8-3.51,3.15-3.51
		c1.05,0,1.94,0.52,2.23,1.28L122.9,35.99z M116.36,41.83H119V24.12h-2.64V41.83z M112.02,31.49h-0.09
		c-0.59-0.71-1.73-1.35-3.17-1.35c-3.01,0-5.77,2.65-5.77,6.05c0,3.38,2.76,6,5.77,6c1.44,0,2.58-0.64,3.17-1.37h0.09v0.87
		c0,2.31-1.23,3.54-3.21,3.54c-1.62,0-2.62-1.16-3.03-2.15l-2.3,0.96c0.66,1.6,2.42,3.56,5.33,3.56c3.1,0,5.72-1.83,5.72-6.28V30.51
		h-2.51V31.49z M108.99,39.82c-1.82,0-3.35-1.53-3.35-3.63c0-2.12,1.53-3.67,3.35-3.67c1.8,0,3.21,1.55,3.21,3.67
		C112.21,38.29,110.79,39.82,108.99,39.82z M143.49,24.12h-6.33v17.71h2.64v-6.71h3.69c2.93,0,5.8-2.12,5.8-5.5
		S146.41,24.12,143.49,24.12z M143.56,32.66h-3.75v-6.07h3.75c1.97,0,3.09,1.64,3.09,3.04C146.65,30.99,145.53,32.66,143.56,32.66z
		 M159.87,30.11c-1.91,0-3.89,0.84-4.71,2.71l2.34,0.98c0.5-0.98,1.43-1.3,2.41-1.3c1.37,0,2.75,0.82,2.78,2.28v0.18
		c-0.48-0.27-1.5-0.68-2.75-0.68c-2.53,0-5.1,1.39-5.1,3.99c0,2.37,2.07,3.9,4.39,3.9c1.77,0,2.75-0.8,3.37-1.73h0.09v1.37h2.55
		v-6.79C165.24,31.87,162.9,30.11,159.87,30.11z M159.55,39.82c-0.86,0-2.07-0.43-2.07-1.5c0-1.37,1.5-1.89,2.8-1.89
		c1.16,0,1.71,0.25,2.41,0.59C162.49,38.66,161.08,39.82,159.55,39.82z M174.52,30.5l-3.03,7.68h-0.09l-3.14-7.68h-2.84l4.71,10.73
		l-2.68,5.97h2.75l7.26-16.7H174.52z M150.75,41.83h2.64V24.12h-2.64V41.83z"/>
	<g>
		<path class="st1" d="M14.22,10.02c-0.41,0.44-0.65,1.11-0.65,1.99v31.31c0,0.88,0.24,1.55,0.65,1.99l0.1,0.1l17.51-17.54v-0.21
			v-0.21L14.32,9.92L14.22,10.02z"/>
		<linearGradient id="SVGID_1_" gradientUnits="userSpaceOnUse" x1="43.4384" y1="27.6636" x2="9.2335" y2="27.6636">
			<stop  offset="0" style="stop-color:#FDDE00"/>
			<stop  offset="0.4022" style="stop-color:#FABC0F"/>
			<stop  offset="0.7729" style="stop-color:#F9A41A"/>
			<stop  offset="1" style="stop-color:#F89B1E"/>
		</linearGradient>
		<path class="st2" d="M37.67,33.72l-5.84-5.85v-0.21v-0.21l5.84-5.85l0.13,0.07l6.92,3.94c1.98,1.12,1.98,2.96,0,4.09l-6.92,3.94
			L37.67,33.72z"/>
		<linearGradient id="SVGID_2_" gradientUnits="userSpaceOnUse" x1="34.5637" y1="30.9097" x2="2.3695" y2="63.1039">
			<stop  offset="0" style="stop-color:#ED4447"/>
			<stop  offset="1" style="stop-color:#C41D6D"/>
		</linearGradient>
		<path class="st3" d="M37.81,33.64l-5.97-5.98L14.22,45.31c0.65,0.69,1.73,0.78,2.94,0.09L37.81,33.64"/>
		<linearGradient id="SVGID_3_" gradientUnits="userSpaceOnUse" x1="2.2261" y1="-7.9213" x2="28.5118" y2="18.3644">
			<stop  offset="0" style="stop-color:#239D6F"/>
			<stop  offset="0.077" style="stop-color:#2BA16E"/>
			<stop  offset="0.4809" style="stop-color:#53B26B"/>
			<stop  offset="0.8027" style="stop-color:#6BBD69"/>
			<stop  offset="1" style="stop-color:#74C168"/>
		</linearGradient>
		<path class="st4" d="M37.81,21.68L17.16,9.93c-1.21-0.69-2.29-0.6-2.94,0.09l17.62,17.64L37.81,21.68z"/>
	</g>
	<g>
		<path d="M64.32,11.02c-0.53-0.47-1.23-0.77-2-0.77c-1.74,0-3.08,1.44-3.08,3.21c0,1.77,1.34,3.19,3.08,3.19
			c1.5,0,2.58-0.87,2.66-2.25H62.6v-0.98h3.65c0,2.93-1.56,4.31-3.94,4.31c-2.37,0-4.2-1.91-4.2-4.27c0-2.37,1.84-4.28,4.2-4.28
			c1.1,0,2.09,0.42,2.81,1.1L64.32,11.02z"/>
		<path d="M72.71,9.27v1.05h-3.81v2.66h3.32v1.05h-3.32v2.52h3.93v1.05h-5.05V9.27H72.71z"/>
		<path d="M80,9.27v1.06h-2.52v7.27h-1.14v-7.27h-2.53V9.27H80z"/>
		<path d="M85.39,9.27v8.33h-1.12V9.27H85.39z"/>
		<path d="M93.05,9.27v1.06h-2.52v7.27h-1.14v-7.27h-2.53V9.27H93.05z"/>
		<path d="M100.97,9.17c2.38,0,4.23,1.91,4.23,4.28c0,2.36-1.85,4.27-4.23,4.27c-2.37,0-4.2-1.91-4.2-4.27
			C96.77,11.08,98.61,9.17,100.97,9.17z M100.97,16.63c1.75,0,3.09-1.42,3.09-3.18c0-1.77-1.34-3.19-3.09-3.19
			c-1.74,0-3.08,1.43-3.08,3.19C97.89,15.22,99.23,16.63,100.97,16.63z"/>
		<path d="M111.85,17.6l-3.79-6.28v6.28h-1.12V9.27h1.11l3.76,6.23V9.27h1.12v8.33H111.85z"/>
	</g>
</g>
</svg>
