<?xml version="1.0" encoding="utf-8"?>
<!-- Generator: Adobe Illustrator 25.1.0, SVG Export Plug-In . SVG Version: 6.00 Build 0)  -->
<svg version="1.1" id="Layer_1" xmlns="http://www.w3.org/2000/svg" xmlns:xlink="http://www.w3.org/1999/xlink" x="0px" y="0px"
	 viewBox="0 0 21.5 21.5" style="enable-background:new 0 0 21.5 21.5;" xml:space="preserve">
<style type="text/css">
	.st0{fill:#575756;}
</style>
<g>
	<g>
		<path class="st0" d="M0.75,21.5c-0.19,0-0.38-0.07-0.53-0.22c-0.29-0.29-0.29-0.77,0-1.06l20-20c0.29-0.29,0.77-0.29,1.06,0
			s0.29,0.77,0,1.06l-20,20C1.13,21.43,0.94,21.5,0.75,21.5z"/>
	</g>
	<g>
		<path class="st0" d="M20.75,21.5c-0.19,0-0.38-0.07-0.53-0.22l-20-20c-0.29-0.29-0.29-0.77,0-1.06s0.77-0.29,1.06,0l20,20
			c0.29,0.29,0.29,0.77,0,1.06C21.13,21.43,20.94,21.5,20.75,21.5z"/>
	</g>
</g>
</svg>
