<?xml version="1.0" encoding="utf-8"?>
<!-- Generator: Adobe Illustrator 25.1.0, SVG Export Plug-In . SVG Version: 6.00 Build 0)  -->
<svg version="1.1" id="Layer_1" xmlns="http://www.w3.org/2000/svg" xmlns:xlink="http://www.w3.org/1999/xlink" x="0px" y="0px"
	 viewBox="0 0 35.8 35.8" style="enable-background:new 0 0 35.8 35.8;" xml:space="preserve">
<style type="text/css">
	.st0{fill:#395196;}
	.st1{fill:#FFFFFF;}
</style>
<g>
	<path id="XMLID_21_" class="st0" d="M35.8,17.9C35.8,8.01,27.79,0,17.9,0C8.01,0,0,8.01,0,17.9c0,9.89,8.01,17.9,17.9,17.9
		C27.79,35.8,35.8,27.78,35.8,17.9z"/>
	<path id="XMLID_19_" class="st1" d="M19.48,13.66v-1.7c0-0.83,0.55-1.02,0.94-1.02c0.39,0,2.38,0,2.38,0V7.31L19.52,7.3
		c-3.64,0-4.46,2.71-4.46,4.44v1.92h-2.1v4.24h2.12c0,4.81,0,10.6,0,10.6h4.24c0,0,0-5.85,0-10.6h3.15l0.39-4.24H19.48z"/>
</g>
</svg>
