<?xml version="1.0" encoding="utf-8"?>
<!-- Generator: Adobe Illustrator 25.1.0, SVG Export Plug-In . SVG Version: 6.00 Build 0)  -->
<svg version="1.1" id="Layer_1" xmlns="http://www.w3.org/2000/svg" xmlns:xlink="http://www.w3.org/1999/xlink" x="0px" y="0px"
	 viewBox="0 0 62 24" style="enable-background:new 0 0 62 24;" xml:space="preserve">
<style type="text/css">
	.st0{fill:#00D173;}
</style>
<g>
	<path class="st0" d="M8.98,7.28v1.75c0,0.29-0.15,0.44-0.44,0.44H5.23v13.69c0,0.16-0.04,0.27-0.13,0.35
		c-0.09,0.08-0.2,0.12-0.33,0.12H2.82c-0.31,0-0.47-0.16-0.47-0.47V9.47H0.44C0.15,9.47,0,9.32,0,9.03V7.28
		c0-0.29,0.15-0.44,0.44-0.44h1.91V6.14c0-1.9,0.52-3.4,1.58-4.5C4.97,0.55,6.36,0,8.08,0c0.29,0,0.44,0.16,0.44,0.47v1.78
		c0,0.31-0.15,0.47-0.44,0.47c-0.92,0-1.62,0.27-2.11,0.82C5.47,4.09,5.23,4.9,5.23,5.97v0.87h3.32C8.84,6.85,8.98,6.99,8.98,7.28z"
		/>
	<path class="st0" d="M12.43,22.47c-0.98-1.02-1.48-2.33-1.48-3.94v-6.58c0-1.61,0.49-2.93,1.48-3.94c0.98-1.02,2.28-1.53,3.89-1.53
		c1.61,0,2.9,0.51,3.89,1.53c0.98,1.02,1.48,2.33,1.48,3.94v6.58c0,1.61-0.49,2.93-1.48,3.94C19.22,23.49,17.93,24,16.32,24
		C14.71,24,13.42,23.49,12.43,22.47z M18.13,20.56c0.45-0.48,0.67-1.13,0.67-1.93v-6.78c0-0.81-0.22-1.45-0.67-1.93
		c-0.45-0.48-1.05-0.72-1.81-0.72c-0.76,0-1.36,0.24-1.79,0.72c-0.44,0.48-0.65,1.12-0.65,1.93v6.78c0,0.81,0.22,1.45,0.65,1.93
		c0.44,0.48,1.03,0.72,1.79,0.72C17.08,21.28,17.68,21.04,18.13,20.56z"/>
	<path class="st0" d="M25.81,22.47c-0.98-1.02-1.48-2.33-1.48-3.94v-6.58c0-1.61,0.49-2.93,1.48-3.94c0.98-1.02,2.28-1.53,3.89-1.53
		c1.61,0,2.9,0.51,3.89,1.53c0.98,1.02,1.48,2.33,1.48,3.94v6.58c0,1.61-0.49,2.93-1.48,3.94C32.6,23.49,31.3,24,29.69,24
		C28.08,24,26.79,23.49,25.81,22.47z M31.5,20.56c0.45-0.48,0.67-1.13,0.67-1.93v-6.78c0-0.81-0.22-1.45-0.67-1.93
		c-0.45-0.48-1.05-0.72-1.81-0.72c-0.76,0-1.36,0.24-1.79,0.72c-0.44,0.48-0.65,1.12-0.65,1.93v6.78c0,0.81,0.22,1.45,0.65,1.93
		c0.44,0.48,1.03,0.72,1.79,0.72C30.45,21.28,31.06,21.04,31.5,20.56z"/>
	<path class="st0" d="M48.36,0.57v17.96c0,1.61-0.49,2.93-1.47,3.94C45.9,23.49,44.62,24,43.03,24s-2.87-0.51-3.85-1.53
		c-0.98-1.02-1.48-2.33-1.48-3.94v-6.58c0-1.61,0.46-2.93,1.37-3.94c0.92-1.02,2.13-1.53,3.65-1.53c1.14,0,2.07,0.41,2.78,1.24V0.57
		c0-0.29,0.15-0.44,0.44-0.44h1.98C48.21,0.13,48.36,0.28,48.36,0.57z M45.51,11.85c0-0.81-0.22-1.44-0.67-1.91
		c-0.45-0.47-1.05-0.7-1.81-0.7s-1.36,0.24-1.79,0.7c-0.44,0.47-0.65,1.11-0.65,1.91v6.78c0,0.81,0.22,1.44,0.65,1.91
		c0.44,0.47,1.03,0.71,1.79,0.71s1.36-0.24,1.81-0.71c0.45-0.47,0.67-1.11,0.67-1.91V11.85z"/>
	<path class="st0" d="M53.96,6.85c0.31,0,0.47,0.15,0.47,0.44v11.35c0,0.81,0.21,1.45,0.62,1.93c0.41,0.48,0.99,0.72,1.73,0.72
		c0.74,0,1.31-0.24,1.73-0.72c0.41-0.48,0.62-1.13,0.62-1.93V7.28c0-0.29,0.16-0.44,0.47-0.44h1.94c0.31,0,0.47,0.15,0.47,0.44
		v11.24c0,1.61-0.49,2.93-1.46,3.94C59.57,23.49,58.31,24,56.77,24c-1.54,0-2.8-0.51-3.77-1.53c-0.97-1.02-1.46-2.33-1.46-3.94V7.28
		c0-0.29,0.16-0.44,0.47-0.44H53.96z"/>
</g>
</svg>
