<?xml version="1.0" encoding="utf-8"?>
<!-- Generator: Adobe Illustrator 25.1.0, SVG Export Plug-In . SVG Version: 6.00 Build 0)  -->
<svg version="1.1" id="Layer_1" xmlns="http://www.w3.org/2000/svg" xmlns:xlink="http://www.w3.org/1999/xlink" x="0px" y="0px"
	 viewBox="0 0 35.8 35.8" style="enable-background:new 0 0 35.8 35.8;" xml:space="preserve">
<style type="text/css">
	.st0{fill:url(#SVGID_1_);}
	.st1{fill:none;stroke:#FFFFFF;stroke-miterlimit:10;}
	.st2{fill:#FFFFFF;}
</style>
<g>
	
		<linearGradient id="SVGID_1_" gradientUnits="userSpaceOnUse" x1="-604.6233" y1="-301.8607" x2="-581.1024" y2="-274.8031" gradientTransform="matrix(-1 0 0 -1 -574.9629 -270.4316)">
		<stop  offset="0" style="stop-color:#5D3FD2"/>
		<stop  offset="0.4244" style="stop-color:#B829A9"/>
		<stop  offset="0.5009" style="stop-color:#BE289D"/>
		<stop  offset="0.6383" style="stop-color:#D0257E"/>
		<stop  offset="0.7849" style="stop-color:#E62256"/>
		<stop  offset="0.8147" style="stop-color:#E83156"/>
		<stop  offset="0.8718" style="stop-color:#EE5755"/>
		<stop  offset="0.9495" style="stop-color:#F89554"/>
		<stop  offset="1" style="stop-color:#FFC153"/>
	</linearGradient>
	<path class="st0" d="M17.9-0.03C8-0.03-0.02,8-0.02,17.9c0,9.9,8.03,17.92,17.92,17.92c9.9,0,17.92-8.03,17.92-17.92
		C35.82,8,27.8-0.03,17.9-0.03z"/>
	<g>
		<path class="st1" d="M12.77,26.6L12.77,26.6L12.77,26.6L12.77,26.6z M23.03,8.43L23.03,8.43L23.03,8.43L23.03,8.43z"/>
		<g>
			<path class="st2" d="M17.9,24.3c3.53,0,6.4-2.87,6.4-6.4c0-3.53-2.87-6.4-6.4-6.4c-3.53,0-6.4,2.87-6.4,6.4
				C11.5,21.43,14.37,24.3,17.9,24.3z M13.05,17.9c0-2.68,2.18-4.85,4.85-4.85s4.85,2.18,4.85,4.85c0,2.67-2.18,4.85-4.85,4.85
				S13.05,20.58,13.05,17.9z"/>
		</g>
		<path class="st2" d="M24.28,28.53H11.52c-2.4,0-4.35-1.95-4.35-4.35V11.61c0-2.4,1.95-4.35,4.35-4.35h12.77
			c2.4,0,4.35,1.95,4.35,4.35v12.57C28.63,26.58,26.68,28.53,24.28,28.53z M11.52,8.85c-1.52,0-2.76,1.24-2.76,2.76v12.57
			c0,1.52,1.24,2.76,2.76,2.76h12.77c1.52,0,2.76-1.24,2.76-2.76V11.61c0-1.52-1.24-2.76-2.76-2.76H11.52z"/>
	</g>
	<path class="st2" d="M24.39,10.77c-0.56,0-1.01,0.46-1.01,1.01c0,0.56,0.45,1.01,1.01,1.01c0.56,0,1.01-0.45,1.01-1.01
		C25.4,11.22,24.94,10.77,24.39,10.77z"/>
</g>
</svg>
