<?xml version="1.0" encoding="utf-8"?>
<!-- Generator: Adobe Illustrator 25.1.0, SVG Export Plug-In . SVG Version: 6.00 Build 0)  -->
<svg version="1.1" id="Layer_1" xmlns="http://www.w3.org/2000/svg" xmlns:xlink="http://www.w3.org/1999/xlink" x="0px" y="0px"
	 viewBox="0 0 190 55" style="enable-background:new 0 0 190 55;" xml:space="preserve">
<style type="text/css">
	.st0{fill:#FFFFFF;}
</style>
<g>
	<g>
		<g>
			<path class="st0" d="M182.62,55H7.38C3.31,55,0,51.69,0,47.62V7.38C0,3.31,3.31,0,7.38,0h175.24c4.08,0,7.38,3.31,7.38,7.38
				v40.24C190,51.69,186.69,55,182.62,55z"/>
		</g>
	</g>
	<g>
		<path d="M62.77,15.26l-0.8,2.64h-1.76l2.99-9.33h2.17l3.03,9.33h-1.83l-0.84-2.64H62.77z M65.44,13.97l-0.73-2.3
			c-0.18-0.57-0.33-1.2-0.47-1.74h-0.03c-0.14,0.54-0.28,1.19-0.44,1.74l-0.72,2.3H65.44z"/>
		<path d="M70.94,11.16l1.09,3.42c0.19,0.59,0.33,1.13,0.46,1.69h0.04c0.12-0.55,0.28-1.08,0.46-1.69l1.08-3.42h1.78l-2.57,6.74
			h-1.67l-2.5-6.74H70.94z"/>
		<path d="M82.65,16.28c0,0.61,0.03,1.2,0.11,1.62h-1.54l-0.12-0.75h-0.04c-0.4,0.53-1.11,0.9-1.99,0.9c-1.36,0-2.12-0.98-2.12-2.01
			c0-1.69,1.51-2.56,4-2.55v-0.11c0-0.44-0.18-1.18-1.37-1.18c-0.66,0-1.36,0.21-1.81,0.5l-0.33-1.11c0.5-0.3,1.37-0.59,2.44-0.59
			c2.16,0,2.78,1.37,2.78,2.85V16.28z M80.99,14.61c-1.2-0.01-2.35,0.24-2.35,1.26c0,0.66,0.43,0.97,0.97,0.97
			c0.69,0,1.18-0.44,1.34-0.93c0.04-0.12,0.04-0.25,0.04-0.37V14.61z"/>
		<path d="M85.9,10.19c-0.57,0-0.94-0.42-0.94-0.91c0-0.53,0.39-0.93,0.95-0.93c0.58,0,0.94,0.4,0.95,0.93
			c0,0.5-0.37,0.91-0.95,0.91H85.9z M85.06,17.9v-6.74h1.7v6.74H85.06z"/>
		<path d="M89.21,8.06h1.7v9.84h-1.7V8.06z"/>
		<path d="M98.6,16.28c0,0.61,0.03,1.2,0.11,1.62h-1.54l-0.12-0.75h-0.04c-0.4,0.53-1.11,0.9-1.99,0.9c-1.36,0-2.12-0.98-2.12-2.01
			c0-1.69,1.51-2.56,4-2.55v-0.11c0-0.44-0.18-1.18-1.37-1.18c-0.66,0-1.36,0.21-1.81,0.5l-0.33-1.11c0.5-0.3,1.37-0.59,2.44-0.59
			c2.16,0,2.78,1.37,2.78,2.85V16.28z M96.94,14.61c-1.2-0.01-2.35,0.24-2.35,1.26c0,0.66,0.43,0.97,0.97,0.97
			c0.69,0,1.18-0.44,1.34-0.93c0.04-0.12,0.04-0.25,0.04-0.37V14.61z"/>
		<path d="M101.01,8.06h1.7v4.03h0.03c0.42-0.65,1.15-1.08,2.16-1.08c1.65,0,2.82,1.37,2.81,3.42c0,2.42-1.54,3.63-3.06,3.63
			c-0.87,0-1.65-0.33-2.13-1.16h-0.03l-0.08,1.01h-1.45c0.03-0.46,0.06-1.2,0.06-1.88V8.06z M102.71,15.12
			c0,0.14,0.01,0.28,0.04,0.4c0.18,0.69,0.77,1.19,1.51,1.19c1.07,0,1.72-0.84,1.72-2.21c0-1.19-0.57-2.16-1.7-2.16
			c-0.69,0-1.33,0.5-1.51,1.25c-0.03,0.12-0.06,0.28-0.06,0.44V15.12z"/>
		<path d="M109.71,8.06h1.7v9.84h-1.7V8.06z"/>
		<path d="M115.07,15.01c0.04,1.22,1,1.74,2.08,1.74c0.79,0,1.34-0.12,1.87-0.3l0.25,1.16c-0.58,0.25-1.38,0.43-2.35,0.43
			c-2.19,0-3.47-1.34-3.47-3.4c0-1.87,1.13-3.63,3.29-3.63c2.19,0,2.91,1.8,2.91,3.28c0,0.32-0.03,0.57-0.05,0.72H115.07z
			 M118.04,13.82c0.01-0.62-0.26-1.65-1.4-1.65c-1.05,0-1.49,0.95-1.56,1.65H118.04z"/>
		<path d="M128.04,18.05c-1.9,0-3.38-1.3-3.38-3.47c0-2.21,1.45-3.57,3.49-3.57c2.01,0,3.35,1.41,3.35,3.46
			c0,2.48-1.74,3.58-3.45,3.58H128.04z M128.09,16.82c0.97,0,1.65-0.94,1.65-2.31c0-1.05-0.47-2.27-1.63-2.27
			c-1.2,0-1.69,1.18-1.69,2.3c0,1.3,0.65,2.28,1.66,2.28H128.09z"/>
		<path d="M133.5,13.17c0-0.78-0.03-1.43-0.06-2.01h1.48l0.08,1.01h0.04c0.3-0.53,1.04-1.16,2.16-1.16c1.18,0,2.39,0.76,2.39,2.89v4
			h-1.7v-3.81c0-0.97-0.36-1.7-1.29-1.7c-0.68,0-1.15,0.48-1.33,1c-0.06,0.14-0.08,0.35-0.08,0.54v3.97h-1.7V13.17z"/>
		<path d="M147.45,9.43v1.73h1.62v1.27h-1.62v2.96c0,0.83,0.22,1.25,0.87,1.25c0.3,0,0.47-0.01,0.66-0.07l0.03,1.29
			c-0.25,0.1-0.71,0.18-1.23,0.18c-0.64,0-1.15-0.21-1.47-0.55c-0.37-0.39-0.54-1.01-0.54-1.9v-3.15h-0.95v-1.27h0.95V9.9
			L147.45,9.43z"/>
		<path d="M150.96,8.06h1.7v4.01h0.03c0.21-0.32,0.5-0.58,0.84-0.76c0.35-0.19,0.75-0.3,1.18-0.3c1.15,0,2.35,0.76,2.35,2.92v3.97
			h-1.7v-3.79c0-0.97-0.36-1.72-1.3-1.72c-0.66,0-1.13,0.44-1.33,0.95c-0.06,0.15-0.07,0.33-0.07,0.51v4.04h-1.7V8.06z"/>
		<path d="M160.68,15.01c0.04,1.22,1,1.74,2.08,1.74c0.79,0,1.34-0.12,1.87-0.3l0.25,1.16c-0.58,0.25-1.38,0.43-2.35,0.43
			c-2.19,0-3.47-1.34-3.47-3.4c0-1.87,1.13-3.63,3.29-3.63c2.19,0,2.91,1.8,2.91,3.28c0,0.32-0.03,0.57-0.05,0.72H160.68z
			 M163.65,13.82c0.01-0.62-0.26-1.65-1.4-1.65c-1.05,0-1.49,0.95-1.56,1.65H163.65z"/>
	</g>
	<g>
		<g>
			<path d="M41.6,26.95c-0.04-4.61,3.78-6.86,3.95-6.97c-2.16-3.16-5.52-3.59-6.7-3.62c-2.82-0.3-5.55,1.69-6.98,1.69
				c-1.46,0-3.68-1.66-6.06-1.61c-3.07,0.05-5.93,1.82-7.51,4.58c-3.24,5.62-0.82,13.88,2.28,18.42c1.56,2.22,3.37,4.71,5.75,4.62
				c2.33-0.1,3.19-1.48,6-1.48c2.78,0,3.6,1.48,6.03,1.43c2.5-0.04,4.07-2.23,5.57-4.48c1.8-2.55,2.52-5.06,2.55-5.19
				C46.44,34.31,41.65,32.48,41.6,26.95"/>
			<path d="M37.01,13.37c1.25-1.57,2.11-3.7,1.87-5.86c-1.81,0.08-4.08,1.25-5.38,2.78c-1.15,1.35-2.19,3.56-1.92,5.64
				C33.62,16.09,35.71,14.91,37.01,13.37"/>
		</g>
		<g>
			<path d="M75.23,43.69h-3.24l-1.78-5.58h-6.17l-1.69,5.58h-3.16l6.12-19h3.78L75.23,43.69z M69.68,35.76l-1.61-4.96
				c-0.17-0.51-0.49-1.7-0.96-3.58h-0.06c-0.19,0.81-0.49,2-0.9,3.58l-1.58,4.96H69.68z"/>
			<path d="M90.97,36.66c0,2.33-0.63,4.17-1.89,5.53c-1.13,1.2-2.53,1.8-4.2,1.8c-1.81,0-3.1-0.65-3.89-1.95h-0.05v7.22h-3.05V34.49
				c0-1.47-0.04-2.97-0.11-4.51h2.68l0.17,2.17h0.06c1.01-1.64,2.56-2.45,4.62-2.45c1.61,0,2.97,0.64,4.05,1.92
				C90.43,32.9,90.97,34.58,90.97,36.66 M87.87,36.78c0-1.33-0.3-2.43-0.9-3.3c-0.66-0.9-1.54-1.35-2.65-1.35
				c-0.75,0-1.44,0.25-2.04,0.75c-0.61,0.5-1.01,1.15-1.2,1.96c-0.09,0.38-0.14,0.68-0.14,0.93v2.29c0,1,0.3,1.84,0.91,2.52
				c0.61,0.69,1.41,1.03,2.38,1.03c1.15,0,2.04-0.44,2.68-1.32C87.55,39.39,87.87,38.22,87.87,36.78"/>
			<path d="M106.73,36.66c0,2.33-0.63,4.17-1.89,5.53c-1.13,1.2-2.53,1.8-4.2,1.8c-1.8,0-3.1-0.65-3.89-1.95h-0.06v7.22h-3.04V34.49
				c0-1.47-0.04-2.97-0.11-4.51h2.68l0.17,2.17h0.06c1.01-1.64,2.55-2.45,4.62-2.45c1.61,0,2.96,0.64,4.05,1.92
				C106.19,32.9,106.73,34.58,106.73,36.66 M103.63,36.78c0-1.33-0.3-2.43-0.9-3.3c-0.66-0.9-1.54-1.35-2.65-1.35
				c-0.75,0-1.44,0.25-2.04,0.75c-0.61,0.5-1.01,1.15-1.2,1.96c-0.1,0.38-0.14,0.68-0.14,0.93v2.29c0,1,0.3,1.84,0.91,2.52
				c0.61,0.69,1.4,1.03,2.38,1.03c1.14,0,2.04-0.44,2.68-1.32C103.31,39.39,103.63,38.22,103.63,36.78"/>
			<path d="M124.35,38.35c0,1.62-0.56,2.93-1.69,3.95c-1.24,1.11-2.96,1.66-5.17,1.66c-2.04,0-3.69-0.39-4.93-1.18l0.71-2.54
				c1.34,0.81,2.8,1.21,4.4,1.21c1.15,0,2.04-0.26,2.68-0.77c0.64-0.52,0.96-1.21,0.96-2.08c0-0.77-0.26-1.42-0.79-1.95
				c-0.53-0.53-1.4-1.02-2.63-1.47c-3.33-1.24-4.99-3.06-4.99-5.45c0-1.56,0.58-2.84,1.75-3.84c1.16-1,2.72-1.5,4.65-1.5
				c1.73,0,3.17,0.3,4.31,0.9l-0.76,2.48c-1.07-0.58-2.28-0.87-3.64-0.87c-1.07,0-1.91,0.26-2.51,0.79
				c-0.51,0.47-0.76,1.04-0.76,1.72c0,0.75,0.29,1.37,0.87,1.86c0.51,0.45,1.43,0.94,2.76,1.47c1.64,0.66,2.84,1.43,3.61,2.31
				C123.96,35.94,124.35,37.04,124.35,38.35"/>
			<path d="M134.42,32.26h-3.36v6.65c0,1.69,0.59,2.54,1.78,2.54c0.54,0,0.99-0.05,1.35-0.14l0.08,2.31
				c-0.6,0.23-1.39,0.34-2.37,0.34c-1.2,0-2.14-0.37-2.82-1.1c-0.68-0.73-1.02-1.97-1.02-3.69v-6.91h-2v-2.29h2v-2.51l2.99-0.9v3.41
				h3.36V32.26z"/>
			<path d="M149.56,36.72c0,2.11-0.6,3.83-1.8,5.19c-1.26,1.39-2.94,2.09-5.02,2.09c-2.01,0-3.61-0.67-4.81-2
				c-1.19-1.33-1.79-3.02-1.79-5.04c0-2.13,0.61-3.86,1.85-5.22c1.23-1.36,2.89-2.03,4.98-2.03c2.01,0,3.63,0.67,4.85,2
				C148.98,33,149.56,34.67,149.56,36.72 M146.4,36.82c0-1.26-0.27-2.35-0.82-3.25c-0.64-1.09-1.55-1.64-2.73-1.64
				c-1.22,0-2.15,0.55-2.79,1.64c-0.55,0.91-0.82,2.01-0.82,3.31c0,1.26,0.27,2.35,0.82,3.25c0.66,1.09,1.58,1.64,2.77,1.64
				c1.16,0,2.07-0.55,2.73-1.67C146.12,39.17,146.4,38.08,146.4,36.82"/>
			<path d="M159.45,32.66c-0.3-0.05-0.62-0.08-0.96-0.08c-1.07,0-1.9,0.41-2.48,1.21c-0.51,0.71-0.76,1.62-0.76,2.71v7.19h-3.04
				l0.03-9.39c0-1.58-0.04-3.02-0.11-4.32h2.65l0.11,2.62h0.08c0.32-0.9,0.83-1.63,1.52-2.17c0.68-0.49,1.41-0.73,2.2-0.73
				c0.28,0,0.54,0.02,0.76,0.05V32.66z"/>
			<path d="M173.07,36.18c0,0.55-0.04,1-0.11,1.38h-9.13c0.03,1.35,0.48,2.39,1.32,3.1c0.77,0.64,1.77,0.96,2.99,0.96
				c1.35,0,2.58-0.22,3.69-0.65l0.48,2.12c-1.3,0.56-2.83,0.85-4.6,0.85c-2.12,0-3.79-0.63-5-1.88c-1.21-1.25-1.82-2.93-1.82-5.03
				c0-2.07,0.56-3.79,1.69-5.16c1.18-1.47,2.78-2.2,4.79-2.2c1.97,0,3.47,0.73,4.49,2.2C172.67,33.03,173.07,34.47,173.07,36.18
				 M170.16,35.39c0.02-0.9-0.18-1.68-0.59-2.34c-0.53-0.85-1.34-1.27-2.43-1.27c-0.99,0-1.8,0.42-2.42,1.24
				c-0.51,0.66-0.81,1.45-0.9,2.37H170.16z"/>
		</g>
	</g>
</g>
</svg>
