<?xml version="1.0" encoding="utf-8"?>
<!-- Generator: Adobe Illustrator 25.1.0, SVG Export Plug-In . SVG Version: 6.00 Build 0)  -->
<svg version="1.1" id="Layer_1" xmlns="http://www.w3.org/2000/svg" xmlns:xlink="http://www.w3.org/1999/xlink" x="0px" y="0px"
	 viewBox="0 0 24 24" style="enable-background:new 0 0 24 24;" xml:space="preserve">
<style type="text/css">
	.st0{fill:#929497;}
</style>
<path class="st0" d="M20.78,20.16C22.85,17.93,24,15.06,24,12c0-3.21-1.25-6.22-3.51-8.49C18.22,1.25,15.21,0,12,0
	C8.91,0,6,1.17,3.77,3.29c-0.04,0.03-0.08,0.06-0.11,0.1C3.61,3.43,3.56,3.47,3.51,3.51c-1.88,1.88-3.05,4.28-3.39,6.87
	C0.11,10.42,0.1,10.46,0.1,10.5C0.04,11,0,11.49,0,12c0,3.21,1.25,6.22,3.51,8.49C5.78,22.75,8.79,24,12,24s6.22-1.25,8.49-3.51
	c0.08-0.08,0.16-0.18,0.24-0.26c0.01-0.01,0.02,0,0.03-0.01C20.78,20.19,20.77,20.17,20.78,20.16z M20.45,19.45
	c-0.14-0.07-0.29-0.11-0.45-0.12c-0.3-0.02-0.59,0.09-0.82,0.29c-0.13,0.12-0.22,0.27-0.28,0.42c-1.33,0.04-2.72-0.18-4.12-0.65
	c-1.43-0.48-2.8-1.2-4.09-2.14c0.03-0.1,0.06-0.2,0.06-0.31c0-0.02-0.01-0.04-0.01-0.07c1.33-0.62,2.55-1.46,3.61-2.53
	c2.46-2.46,3.76-5.72,3.61-8.97c0.2-0.08,0.35-0.24,0.48-0.41c1.4,0.49,2.64,1.18,3.68,2.08c0.75,1.52,1.16,3.21,1.16,4.96
	C23.28,14.77,22.27,17.39,20.45,19.45z M19.56,20.35c0.02-0.07,0.05-0.14,0.11-0.2c0.06-0.05,0.13-0.08,0.2-0.09
	C19.77,20.16,19.66,20.25,19.56,20.35z M3.42,5.97C3,6.13,2.7,6.54,2.7,7.02c0,0.15,0.03,0.28,0.08,0.41
	C2.18,7.94,1.62,8.49,1.12,9.07c0.43-1.61,1.22-3.11,2.32-4.4C3.41,5.09,3.4,5.53,3.42,5.97z M3.43,7.02c0-0.23,0.18-0.41,0.41-0.41
	s0.41,0.18,0.41,0.41S4.06,7.43,3.83,7.43S3.43,7.24,3.43,7.02z M4.97,7.02c0-0.09-0.03-0.18-0.05-0.26
	c1.31-0.84,2.73-1.49,4.23-1.92c2.42-0.7,4.93-0.83,7.26-0.4c0.04,0.48,0.38,0.86,0.83,0.98c0.14,3.05-1.08,6.12-3.4,8.43
	c-0.99,0.99-2.13,1.79-3.37,2.37c-0.21-0.24-0.5-0.4-0.84-0.4c-0.19,0-0.36,0.06-0.51,0.14c-0.15-0.14-0.31-0.29-0.46-0.43
	c-2.17-2.17-3.67-4.84-4.26-7.54C4.73,7.78,4.97,7.43,4.97,7.02z M17.53,4.74c-0.23,0-0.41-0.18-0.41-0.41s0.18-0.41,0.41-0.41
	c0.23,0,0.41,0.18,0.41,0.41S17.75,4.74,17.53,4.74z M9.62,16.54c0.23,0,0.41,0.18,0.41,0.41c0,0.23-0.18,0.41-0.41,0.41
	c-0.23,0-0.41-0.18-0.41-0.41C9.22,16.72,9.4,16.54,9.62,16.54z M21.19,5.48C20.41,5,19.56,4.59,18.65,4.27
	c-0.03-0.56-0.46-1-1.01-1.05C17.52,2.8,17.38,2.4,17.22,2c1,0.52,1.93,1.2,2.75,2.02C20.43,4.48,20.83,4.97,21.19,5.48z M16.2,1.54
	c0.31,0.58,0.55,1.21,0.72,1.86c-0.13,0.09-0.24,0.2-0.33,0.33c-2.46-0.46-5.1-0.32-7.65,0.41C7.38,4.59,5.9,5.27,4.53,6.14
	c-0.11-0.09-0.24-0.16-0.39-0.2C4.11,5.2,4.16,4.48,4.29,3.79C6.39,1.82,9.11,0.72,12,0.72C13.46,0.72,14.88,1.01,16.2,1.54z
	 M0.82,10.62c0.67-0.96,1.49-1.84,2.44-2.65C3.39,8.05,3.53,8.1,3.69,8.12c0.61,2.84,2.18,5.64,4.45,7.91
	c0.15,0.15,0.31,0.29,0.46,0.44c-0.06,0.14-0.1,0.29-0.11,0.45c-2.44,0.63-4.9,0.38-6.96-0.71C1.01,14.89,0.72,13.47,0.72,12
	C0.72,11.53,0.76,11.08,0.82,10.62z M4.03,19.97C3.2,19.15,2.53,18.22,2,17.22c1.21,0.5,2.52,0.77,3.87,0.77
	c0.94,0,1.9-0.14,2.85-0.39c0.21,0.28,0.52,0.48,0.9,0.48c0.25,0,0.47-0.1,0.66-0.23c2.61,1.89,5.55,2.93,8.34,2.93
	c0.08,0,0.16,0,0.25-0.01c0.01,0.04,0.03,0.09,0.05,0.13c-1.97,1.54-4.37,2.38-6.91,2.38C8.99,23.28,6.16,22.1,4.03,19.97z"/>
</svg>
