<?xml version="1.0" encoding="utf-8"?>
<!-- Generator: Adobe Illustrator 25.1.0, SVG Export Plug-In . SVG Version: 6.00 Build 0)  -->
<svg version="1.1" id="Layer_1" xmlns="http://www.w3.org/2000/svg" xmlns:xlink="http://www.w3.org/1999/xlink" x="0px" y="0px"
	 viewBox="0 0 135 25.3" style="enable-background:new 0 0 135 25.3;" xml:space="preserve">
<style type="text/css">
	.st0{fill:#FFCF00;}
</style>
<g>
	<g>
		<g>
			<path class="st0" d="M72.68,12.48c0.76,0.8,1.14,1.94,1.14,3.4v8.81H71v-8.66c0-0.73-0.18-1.27-0.55-1.61
				c-0.37-0.34-0.85-0.51-1.44-0.51c-0.63,0-1.18,0.21-1.65,0.64c-0.47,0.43-0.71,1.13-0.71,2.11v8.03h-2.82v-8.66
				c0-0.73-0.18-1.27-0.55-1.61c-0.37-0.34-0.84-0.51-1.41-0.51c-0.63,0-1.18,0.21-1.65,0.64c-0.47,0.43-0.71,1.13-0.71,2.11v8.03
				h-2.82V11.61h2.82v1.36c0.73-1.13,1.81-1.7,3.24-1.7c0.7,0,1.33,0.16,1.91,0.48c0.58,0.32,1.03,0.79,1.36,1.4
				c0.91-1.25,2.14-1.88,3.69-1.88C70.94,11.27,71.93,11.67,72.68,12.48z"/>
			<path class="st0" d="M85.56,12.61c0.98,0.89,1.46,2.13,1.46,3.71v8.37h-2.77v-1.23c-0.84,1.05-2.07,1.57-3.71,1.57
				c-1.25,0-2.32-0.36-3.19-1.09c-0.87-0.72-1.31-1.75-1.31-3.07c0-1.32,0.44-2.34,1.31-3.06c0.87-0.71,1.94-1.07,3.19-1.07
				c1.59,0,2.82,0.44,3.71,1.33v-1.62c0-0.87-0.22-1.51-0.65-1.92c-0.44-0.41-1.03-0.61-1.78-0.61c-0.71,0-1.3,0.18-1.75,0.54
				c-0.45,0.36-0.68,0.85-0.68,1.48h-2.77c0-0.94,0.23-1.76,0.69-2.47c0.46-0.71,1.09-1.25,1.87-1.62c0.78-0.37,1.66-0.56,2.64-0.56
				C83.34,11.27,84.59,11.72,85.56,12.61z M83.48,22.28c0.51-0.37,0.77-0.84,0.77-1.41c0-0.59-0.26-1.06-0.77-1.41
				c-0.52-0.35-1.19-0.52-2.03-0.52c-0.85,0-1.5,0.17-1.93,0.52c-0.44,0.35-0.65,0.82-0.65,1.41c0,0.59,0.22,1.07,0.65,1.43
				c0.44,0.36,1.08,0.54,1.93,0.54C82.29,22.83,82.97,22.65,83.48,22.28z"/>
			<g>
				<polygon class="st0" points="92.81,11.61 89.98,11.61 89.98,14.13 92.81,13.44 				"/>
				<polygon class="st0" points="89.98,15.08 89.98,24.69 92.81,24.69 92.81,14.38 				"/>
			</g>
			<path class="st0" d="M104.82,11.87c0.65,0.4,1.17,0.98,1.54,1.73c0.37,0.75,0.56,1.64,0.56,2.67v8.42h-2.82v-8.26
				c0-0.8-0.22-1.42-0.67-1.86c-0.44-0.44-1.02-0.65-1.74-0.65c-0.8,0-1.47,0.26-2,0.78c-0.53,0.52-0.8,1.35-0.8,2.48v7.51h-2.82
				V11.61h2.82v1.49c0.8-1.22,2.04-1.83,3.71-1.83C103.43,11.27,104.17,11.47,104.82,11.87z"/>
			<path class="st0" d="M112.59,24.11c-1.05-0.61-1.89-1.44-2.51-2.48c-0.62-1.05-0.93-2.2-0.93-3.48c0-1.27,0.31-2.44,0.93-3.49
				c0.62-1.05,1.46-1.88,2.51-2.48c1.05-0.6,2.21-0.9,3.47-0.9c1.27,0,2.44,0.3,3.49,0.9c1.05,0.6,1.89,1.43,2.5,2.48
				c0.61,1.06,0.92,2.22,0.92,3.49c0,1.27-0.31,2.43-0.92,3.48c-0.61,1.05-1.45,1.87-2.51,2.48c-1.06,0.61-2.22,0.92-3.48,0.92
				S113.64,24.72,112.59,24.11z M118.13,21.75c0.62-0.36,1.11-0.85,1.46-1.48c0.36-0.63,0.54-1.33,0.54-2.12
				c0-0.78-0.18-1.49-0.54-2.12c-0.36-0.63-0.85-1.12-1.46-1.48c-0.62-0.36-1.31-0.54-2.08-0.54c-0.77,0-1.46,0.18-2.08,0.54
				c-0.62,0.36-1.11,0.85-1.46,1.48c-0.36,0.63-0.54,1.33-0.54,2.12c0,0.78,0.18,1.49,0.54,2.12c0.36,0.63,0.85,1.12,1.46,1.48
				s1.31,0.54,2.08,0.54C116.82,22.28,117.51,22.1,118.13,21.75z"/>
			<path class="st0" d="M128.45,16.36c0.44,0.22,1.14,0.45,2.12,0.69c0.92,0.21,1.69,0.43,2.29,0.67c0.6,0.24,1.12,0.62,1.54,1.15
				c0.43,0.53,0.64,1.24,0.64,2.13c0,1.26-0.48,2.24-1.45,2.96c-0.97,0.71-2.19,1.07-3.67,1.07c-1.52,0-2.75-0.38-3.71-1.15
				c-0.96-0.77-1.44-1.85-1.44-3.24h2.77c0,0.63,0.21,1.09,0.64,1.4c0.43,0.31,1.01,0.46,1.74,0.46c0.7,0,1.26-0.13,1.67-0.38
				c0.42-0.25,0.63-0.62,0.63-1.11c0-0.47-0.22-0.82-0.67-1.05c-0.44-0.23-1.14-0.46-2.08-0.71c-0.92-0.21-1.69-0.44-2.29-0.68
				c-0.6-0.24-1.12-0.63-1.56-1.16c-0.44-0.53-0.65-1.24-0.65-2.13c0-1.22,0.47-2.19,1.42-2.92c0.95-0.72,2.12-1.09,3.52-1.09
				c1.38,0,2.53,0.38,3.47,1.15c0.93,0.77,1.4,1.84,1.4,3.22H132c0-0.61-0.2-1.07-0.6-1.37c-0.4-0.31-0.9-0.46-1.49-0.46
				c-0.63,0-1.14,0.13-1.53,0.38c-0.39,0.25-0.59,0.61-0.59,1.08C127.79,15.78,128.01,16.14,128.45,16.36z"/>
		</g>
		<g>
			<path class="st0" d="M19.25,12.63c-0.08,0.35-0.22,0.79-0.42,1.32c-0.19,0.53-0.4,1.09-0.62,1.69c-0.22,0.6-0.43,1.19-0.63,1.79
				c-0.21,0.6-0.36,1.14-0.47,1.64c-0.11,0.5-0.15,0.9-0.14,1.22c0.02,0.32,0.15,0.5,0.39,0.53h0.07c0.19,0,0.42-0.1,0.69-0.3
				c0.27-0.2,0.54-0.42,0.81-0.65c0.28-0.24,0.55-0.45,0.81-0.65c0.26-0.2,0.48-0.3,0.66-0.3c0.11,0,0.2,0.04,0.27,0.13
				c0.06,0.07,0.03,0.24-0.09,0.5c-0.12,0.26-0.3,0.56-0.54,0.91c-0.24,0.34-0.52,0.71-0.84,1.1c-0.32,0.39-0.65,0.75-1,1.09
				c-0.34,0.34-0.68,0.64-1.01,0.89c-0.33,0.25-0.63,0.41-0.9,0.48c-0.16,0.05-0.31,0.08-0.44,0.1c-0.14,0.02-0.26,0.03-0.37,0.03
				c-0.46,0-0.79-0.11-1-0.34s-0.36-0.48-0.45-0.76c-0.1-0.28-0.17-0.53-0.22-0.75c-0.05-0.22-0.14-0.33-0.29-0.33
				c-0.07,0-0.17,0.08-0.3,0.25c-0.13,0.16-0.28,0.36-0.44,0.6c-0.17,0.24-0.36,0.49-0.58,0.77c-0.22,0.28-0.46,0.53-0.72,0.77
				c-0.27,0.24-0.56,0.43-0.88,0.59c-0.32,0.16-0.67,0.24-1.04,0.24c-0.17,0-0.39-0.03-0.65-0.09c-0.37-0.11-0.68-0.35-0.91-0.72
				c-0.23-0.37-0.39-0.83-0.48-1.39c-0.09-0.56-0.11-1.2-0.06-1.92c0.05-0.72,0.16-1.49,0.33-2.31c0.17-0.82,0.4-1.67,0.69-2.55
				c0.29-0.88,0.63-1.76,1.01-2.62c0.12-0.28,0.28-0.52,0.47-0.71c0.19-0.2,0.4-0.36,0.63-0.49c0.23-0.13,0.47-0.22,0.72-0.29
				c0.25-0.07,0.5-0.1,0.74-0.1c0.11,0,0.25,0.01,0.42,0.04c0.17,0.02,0.33,0.06,0.48,0.12c0.15,0.05,0.27,0.13,0.37,0.23
				c0.1,0.1,0.13,0.22,0.09,0.36c-0.01,0.08-0.06,0.22-0.14,0.4c-0.08,0.18-0.17,0.39-0.26,0.62c-0.1,0.23-0.2,0.46-0.32,0.71
				c-0.11,0.24-0.23,0.46-0.33,0.67c-0.37,0.75-0.65,1.48-0.84,2.21c-0.19,0.72-0.3,1.37-0.33,1.94c-0.04,0.57-0.01,1.02,0.07,1.37
				c0.08,0.34,0.21,0.52,0.38,0.52c0.3,0,0.61-0.17,0.91-0.51c0.31-0.34,0.61-0.76,0.9-1.28c0.29-0.51,0.57-1.08,0.83-1.71
				c0.27-0.63,0.51-1.23,0.72-1.82c0.22-0.59,0.4-1.12,0.54-1.59c0.14-0.48,0.24-0.82,0.29-1.02c0.05-0.2,0.11-0.38,0.19-0.52
				c0.08-0.14,0.22-0.26,0.43-0.35c0.12-0.06,0.29-0.13,0.52-0.2c0.22-0.07,0.46-0.15,0.71-0.22c0.25-0.07,0.49-0.13,0.71-0.18
				c0.23-0.05,0.4-0.07,0.51-0.07c0.13,0,0.23,0.03,0.29,0.09c0.06,0.06,0.1,0.14,0.12,0.24c0.02,0.1,0.02,0.2,0,0.32
				C19.29,12.41,19.27,12.52,19.25,12.63z"/>
			<path class="st0" d="M30.18,15.63c-0.06,0.63-0.19,1.3-0.38,2.01c-0.19,0.71-0.45,1.41-0.78,2.11c-0.32,0.69-0.71,1.36-1.17,2.01
				c-0.45,0.64-0.96,1.21-1.54,1.7c-0.57,0.49-1.21,0.88-1.9,1.17c-0.69,0.29-1.44,0.43-2.25,0.43h-0.27
				c-0.42-0.02-0.81-0.15-1.16-0.39c-0.35-0.24-0.65-0.56-0.9-0.98c-0.25-0.42-0.43-0.91-0.54-1.48c-0.12-0.57-0.14-1.21-0.08-1.91
				c0.08-0.98,0.32-1.97,0.7-2.97s0.88-1.91,1.5-2.72c0.62-0.81,1.35-1.48,2.19-2c0.84-0.52,1.75-0.78,2.74-0.78
				c0.07,0,0.15,0,0.23,0c0.08,0,0.15,0.01,0.23,0.02c0.67,0.06,1.24,0.2,1.69,0.41c0.45,0.21,0.81,0.48,1.08,0.81
				c0.27,0.33,0.45,0.71,0.54,1.15C30.2,14.65,30.22,15.12,30.18,15.63z M26.16,13.59c-0.46,0.02-0.88,0.23-1.28,0.62
				c-0.39,0.39-0.74,0.88-1.03,1.45c-0.3,0.57-0.54,1.2-0.72,1.87c-0.19,0.67-0.31,1.29-0.35,1.87c-0.06,0.66-0.03,1.23,0.08,1.71
				c0.11,0.48,0.35,0.74,0.7,0.79h0.05c0.22,0,0.45-0.12,0.71-0.36c0.25-0.24,0.5-0.56,0.75-0.96c0.25-0.4,0.49-0.85,0.72-1.35
				c0.23-0.5,0.43-1.01,0.61-1.54c0.17-0.52,0.32-1.04,0.42-1.54c0.11-0.5,0.16-0.94,0.15-1.33c-0.01-0.39-0.07-0.69-0.19-0.92
				S26.45,13.56,26.16,13.59z"/>
			<path class="st0" d="M30.85,22.93c-0.14-0.48-0.23-1.03-0.26-1.66s-0.04-1.28-0.01-1.95c0.03-0.68,0.09-1.36,0.17-2.05
				c0.08-0.69,0.17-1.33,0.26-1.94c0.09-0.6,0.18-1.14,0.27-1.61c0.09-0.47,0.16-0.83,0.21-1.09c0.06-0.29,0.18-0.52,0.37-0.7
				c0.19-0.18,0.41-0.31,0.66-0.4c0.25-0.09,0.52-0.15,0.79-0.18c0.27-0.03,0.52-0.04,0.73-0.04c0.43,0,0.79,0.05,1.07,0.14
				c0.28,0.1,0.49,0.22,0.62,0.36c0.14,0.14,0.21,0.3,0.23,0.46s-0.04,0.31-0.14,0.44c-0.29,0.37-0.56,0.84-0.8,1.38
				s-0.45,1.13-0.62,1.75c-0.18,0.62-0.31,1.23-0.42,1.84c-0.1,0.61-0.16,1.16-0.18,1.65c-0.02,0.49,0.01,0.88,0.09,1.19
				c0.08,0.3,0.21,0.45,0.41,0.45c0.17,0,0.39-0.16,0.65-0.48c0.27-0.32,0.57-0.74,0.91-1.26c0.34-0.52,0.7-1.11,1.09-1.78
				s0.78-1.35,1.19-2.05c0.4-0.69,0.81-1.37,1.21-2.04c0.4-0.67,0.79-1.26,1.17-1.78c0.37-0.52,0.72-0.94,1.04-1.26
				c0.32-0.32,0.6-0.48,0.82-0.48c0.05,0,0.1,0.01,0.14,0.04c0.12,0.05,0.26,0.12,0.42,0.23c0.16,0.1,0.21,0.21,0.15,0.32
				c-0.29,0.58-0.64,1.32-1.06,2.23c-0.42,0.91-0.87,1.87-1.36,2.89c-0.49,1.03-1,2.07-1.55,3.12c-0.54,1.06-1.09,2.03-1.64,2.92
				c-0.55,0.89-1.09,1.66-1.61,2.29c-0.52,0.63-1.58,1.28-2.87,1.17C31.71,24.94,30.99,23.41,30.85,22.93z"/>
			<path class="st0" d="M46.71,21.78c-0.57,1.07-1.21,1.87-1.93,2.38c-0.72,0.51-1.43,0.8-2.13,0.86c-0.43,0-0.82-0.11-1.15-0.32
				c-0.33-0.21-0.61-0.49-0.83-0.84c-0.22-0.35-0.4-0.75-0.52-1.2c-0.12-0.45-0.19-0.93-0.2-1.42c-0.02-1.32,0.16-2.55,0.54-3.69
				c0.39-1.15,0.94-2.16,1.66-3.03c0.72-0.88,1.58-1.58,2.59-2.12c1.01-0.54,2.11-0.86,3.32-0.97c0.07-0.01,0.14-0.02,0.22-0.02
				c0.07,0,0.14,0,0.2,0c0.25,0,0.48,0.04,0.67,0.11s0.4,0.21,0.63,0.4c0.07,0,0.19-0.06,0.36-0.19c0.17-0.13,0.4-0.19,0.69-0.19
				c0.16,0,0.31,0.02,0.45,0.07c0.33,0.1,0.58,0.22,0.75,0.38c0.18,0.16,0.21,0.37,0.12,0.63c-0.05,0.12-0.13,0.35-0.25,0.7
				c-0.12,0.34-0.26,0.75-0.42,1.23c-0.16,0.48-0.32,1-0.5,1.57c-0.17,0.57-0.34,1.14-0.49,1.71c-0.15,0.57-0.29,1.13-0.41,1.67
				c-0.12,0.54-0.2,1.03-0.24,1.47c-0.04,0.43-0.04,0.79,0.01,1.07c0.05,0.28,0.16,0.43,0.34,0.47h0.07c0.16,0,0.33-0.08,0.52-0.24
				c0.19-0.16,0.38-0.37,0.59-0.63c0.2-0.25,0.41-0.52,0.61-0.81c0.2-0.29,0.39-0.56,0.57-0.81c0.18-0.25,0.35-0.45,0.5-0.62
				c0.15-0.17,0.27-0.26,0.35-0.27c0.08,0,0.18,0.02,0.3,0.06c0.11,0.04,0.16,0.12,0.14,0.23c-0.04,0.22-0.12,0.51-0.24,0.89
				c-0.12,0.37-0.28,0.78-0.48,1.21c-0.2,0.43-0.43,0.87-0.7,1.32c-0.27,0.45-0.56,0.85-0.89,1.22c-0.33,0.37-0.68,0.67-1.06,0.9
				c-0.38,0.23-0.78,0.34-1.2,0.34c-0.12,0-0.21-0.01-0.27-0.02c-0.24-0.04-0.49-0.12-0.73-0.26c-0.25-0.14-0.48-0.34-0.69-0.62
				c-0.21-0.27-0.4-0.62-0.55-1.05S46.77,22.4,46.71,21.78z M45.17,20.59c0.41-0.34,0.81-0.8,1.19-1.37
				c0.38-0.58,0.72-1.2,1.01-1.85c0.3-0.65,0.54-1.3,0.74-1.95c0.2-0.65,0.33-1.22,0.39-1.7v-0.15c0-0.25-0.07-0.38-0.22-0.38
				c-0.34-0.01-0.68,0.09-1.04,0.32c-0.36,0.22-0.7,0.52-1.04,0.88c-0.34,0.36-0.65,0.77-0.95,1.24c-0.3,0.46-0.56,0.94-0.79,1.42
				c-0.23,0.48-0.41,0.96-0.55,1.42c-0.14,0.47-0.22,0.88-0.24,1.25c-0.02,0.37,0.03,0.66,0.15,0.89c0.12,0.22,0.33,0.33,0.63,0.33
				C44.65,20.91,44.89,20.79,45.17,20.59z"/>
		</g>
		<g>
			<path class="st0" d="M2.81,25.23c-0.69,0-1.24-0.19-1.64-0.56c-0.41-0.38-0.71-0.89-0.9-1.53c-0.19-0.64-0.29-1.38-0.3-2.21
				c-0.01-0.83,0.05-1.71,0.16-2.63c0.11-0.92,0.26-1.84,0.46-2.77c0.19-0.93,0.39-1.82,0.6-2.66c0.21-0.84,0.42-1.6,0.61-2.27
				C1.99,9.93,2.15,9.4,2.27,9c0.4-1.35,0.72-2.49,0.97-3.43c0.25-0.94,0.44-1.72,0.57-2.34c0.13-0.62,0.21-1.1,0.23-1.45
				c0.02-0.34,0-0.59-0.07-0.75C3.9,0.84,3.9,0.67,4,0.54C4.09,0.41,4.23,0.3,4.43,0.22c0.2-0.08,0.43-0.14,0.7-0.17
				C5.41,0.02,5.68,0,5.96,0c0.3,0,0.59,0.01,0.87,0.04s0.5,0.07,0.67,0.12c0.55,0.15,0.92,0.4,1.11,0.76
				C8.8,1.29,8.84,1.74,8.73,2.26c-0.12,0.57-0.31,1.27-0.57,2.1C7.91,5.2,7.62,6.1,7.29,7.08c-0.33,0.98-0.68,2-1.04,3.07
				c-0.36,1.07-0.71,2.12-1.03,3.15c-0.32,1.03-0.61,2.01-0.85,2.95c-0.24,0.94-0.41,1.77-0.51,2.5c-0.09,0.73-0.09,1.32,0,1.77
				c0.09,0.46,0.32,0.72,0.67,0.78h0.1c0.2,0,0.4-0.08,0.59-0.24c0.2-0.16,0.4-0.36,0.6-0.61c0.2-0.25,0.41-0.52,0.6-0.81
				c0.2-0.29,0.39-0.57,0.56-0.82s0.35-0.49,0.52-0.68c0.16-0.2,0.31-0.32,0.45-0.36c0.03-0.01,0.06-0.02,0.1-0.02
				c0.12,0,0.19,0.08,0.22,0.25c0.03,0.17,0.02,0.35-0.01,0.57c-0.03,0.21-0.08,0.42-0.13,0.62c-0.05,0.2-0.09,0.35-0.12,0.43
				c-0.2,0.57-0.47,1.18-0.8,1.83c-0.34,0.65-0.73,1.26-1.18,1.82c-0.45,0.56-0.94,1.03-1.49,1.4C4.01,25.05,3.43,25.23,2.81,25.23z
				"/>
		</g>
	</g>
</g>
</svg>
