<?xml version="1.0" encoding="utf-8"?>
<!-- Generator: Adobe Illustrator 25.1.0, SVG Export Plug-In . SVG Version: 6.00 Build 0)  -->
<svg version="1.1" id="Layer_1" xmlns="http://www.w3.org/2000/svg" xmlns:xlink="http://www.w3.org/1999/xlink" x="0px" y="0px"
	 viewBox="0 0 28.75 28.25" style="enable-background:new 0 0 28.75 28.25;" xml:space="preserve">
<style type="text/css">
	.st0{fill:#575756;}
	.st1{fill:#00D173;}
</style>
<g>
	<g>
		<path class="st0" d="M10.72,12.62c-3.04,0-5.6-2.96-5.6-6.47C5.12,2.76,7.63,0,10.72,0c3.09,0,5.6,2.76,5.6,6.14
			C16.32,9.65,13.75,12.62,10.72,12.62z M10.72,1.25c-2.4,0-4.35,2.2-4.35,4.89c0,2.78,2.03,5.23,4.35,5.23
			c2.32,0,4.35-2.44,4.35-5.23C15.07,3.44,13.12,1.25,10.72,1.25z"/>
	</g>
	<g>
		<path class="st0" d="M19.52,28.25H1.92C0.86,28.25,0,27.39,0,26.34V22.6c0-4.96,4.04-9,9.01-9h3.41c0.46,0,0.92,0.03,1.37,0.1
			c0.34,0.05,0.58,0.37,0.52,0.71c-0.05,0.34-0.37,0.57-0.71,0.52c-0.39-0.06-0.78-0.09-1.18-0.09H9.01c-4.28,0-7.76,3.48-7.76,7.75
			v3.73c0,0.37,0.3,0.66,0.67,0.66h17.6c0.37,0,0.67-0.3,0.67-0.66v-2.59c0-0.34,0.28-0.62,0.63-0.62c0.34,0,0.63,0.28,0.63,0.62
			v2.59C21.43,27.39,20.57,28.25,19.52,28.25z"/>
	</g>
	<g>
		<path class="st0" d="M5.02,28.25c-0.34,0-0.63-0.28-0.63-0.62v-5.28c0-0.34,0.28-0.62,0.63-0.62c0.34,0,0.63,0.28,0.63,0.62v5.28
			C5.65,27.97,5.37,28.25,5.02,28.25z"/>
	</g>
	<g>
		<path class="st0" d="M16.41,28.25c-0.34,0-0.63-0.28-0.63-0.62v-5.28c0-0.34,0.28-0.62,0.63-0.62c0.34,0,0.63,0.28,0.63,0.62v5.28
			C17.04,27.97,16.75,28.25,16.41,28.25z"/>
	</g>
	<g>
		<g>
			<path class="st1" d="M18.44,19.19l0.26-2.45l4.39-4.38c0.47-0.47,1.24-0.47,1.71,0l0.41,0.41c0.47,0.47,0.47,1.24,0,1.71
				l-4.38,4.38L18.44,19.19z M19.66,17.2l-0.09,0.83l0.8-0.11l4.14-4.14c0.08-0.08,0.08-0.22,0-0.3l-0.41-0.41
				c-0.08-0.08-0.22-0.08-0.3,0L19.66,17.2z"/>
		</g>
		<g>
			<polygon class="st1" points="20.7,18.29 19.28,16.87 19.99,16.17 21.41,17.59 			"/>
		</g>
		<g>
			<polygon class="st1" points="23.99,15.01 22.57,13.59 23.27,12.89 24.69,14.31 			"/>
		</g>
		<g>
			<path class="st0" d="M22.04,22.26c-3.7,0-6.71-3.01-6.71-6.7s3.01-6.7,6.71-6.7s6.71,3.01,6.71,6.7S25.74,22.26,22.04,22.26z
				 M22.04,10.11c-3.01,0-5.46,2.45-5.46,5.45s2.45,5.45,5.46,5.45s5.46-2.45,5.46-5.45S25.05,10.11,22.04,10.11z"/>
		</g>
	</g>
</g>
</svg>
