<?xml version="1.0" encoding="utf-8"?>
<!-- Generator: Adobe Illustrator 25.1.0, SVG Export Plug-In . SVG Version: 6.00 Build 0)  -->
<svg version="1.1" id="Layer_1" xmlns="http://www.w3.org/2000/svg" xmlns:xlink="http://www.w3.org/1999/xlink" x="0px" y="0px"
	 viewBox="0 0 65.5 75" style="enable-background:new 0 0 65.5 75;" xml:space="preserve">
<style type="text/css">
	.st0{fill:#FFFFFF;}
</style>
<g>
	<path class="st0" d="M45.02,30.4l-0.08-0.02l-7.22-0.84c-0.85-0.1-1.62,0.51-1.72,1.37c-0.1,0.85,0.51,1.62,1.36,1.72l7.05,0.82
		c0.9,0.22,1.56,0.77,2.23,1.86l6.54,16.56c0.24,0.61,0.83,0.98,1.45,0.98c0.19,0,0.38-0.04,0.57-0.11c0.8-0.32,1.19-1.22,0.87-2.02
		l-6.58-16.68l-0.05-0.12l-0.07-0.11C48.65,32.6,47.41,30.93,45.02,30.4z"/>
	<path class="st0" d="M24.15,70.06L13.29,65.6c0,0-0.01,0-0.01,0l-8.03-3.3l-0.07-0.03c-0.78-0.28-1.41-0.84-1.77-1.6
		c-0.36-0.75-0.4-1.6-0.12-2.38l0.03-0.07L8.6,37.21c0.34-0.93,1.03-2.1,2.36-2.59l8.3-2.02c0.83-0.2,1.35-1.04,1.14-1.88
		c-0.2-0.83-1.04-1.35-1.88-1.14l-8.38,2.04L10,31.66c-2.01,0.7-3.55,2.32-4.36,4.57L5.62,36.3L0.34,57.32
		c-0.53,1.55-0.44,3.21,0.27,4.69c0.71,1.49,1.95,2.62,3.5,3.18l7.02,2.89v5.37c0,0.86,0.7,1.55,1.55,1.55s1.55-0.7,1.55-1.55v-4.1
		l8.73,3.59c0.19,0.08,0.39,0.12,0.59,0.12c0.61,0,1.19-0.36,1.44-0.96C25.32,71.3,24.94,70.39,24.15,70.06z"/>
	<path class="st0" d="M23.12,29.58c1.35,1.4,3.16,2.17,5.1,2.17c1.94,0,3.75-0.77,5.1-2.17l3.28-3.41c1.61-1.68,2.5-3.89,2.5-6.22
		V17.1h-3.11v2.85c0,1.52-0.58,2.96-1.63,4.06l-3.28,3.41c-0.75,0.79-1.77,1.22-2.86,1.22c-1.09,0-2.1-0.43-2.86-1.22l-3.28-3.41
		c-1.05-1.1-1.63-2.54-1.63-4.06V9.33c0-3.43,2.79-6.22,6.21-6.22h3.11c3.43,0,6.21,2.79,6.21,6.22v3.11H23.56v3.11h24.86v-3.11
		h-9.32V9.33c0-5.14-4.18-9.33-9.32-9.33h-3.11c-5.14,0-9.32,4.18-9.32,9.33v10.63c0,2.33,0.89,4.54,2.5,6.22L23.12,29.58z"/>
	<path class="st0" d="M64.54,59.19L45.9,51.41c-0.19-0.08-0.39-0.12-0.6-0.12H20.45c-0.86,0-1.55,0.7-1.55,1.55s0.7,1.55,1.55,1.55
		h24.54l14.91,6.22H28.55l-12.76-5.67v-2.1c0-0.86-0.7-1.55-1.55-1.55s-1.55,0.7-1.55,1.55v3.11c0,0.61,0.36,1.17,0.92,1.42
		l13.06,5.81v8.32c0,0.86,0.7,1.55,1.55,1.55h35.73c0.86,0,1.55-0.7,1.55-1.55v-9.33v-1.55C65.5,59.99,65.12,59.43,64.54,59.19z
		 M62.39,69.95H29.77v-6.22h32.62V69.95z"/>
</g>
</svg>
