<?xml version="1.0" encoding="utf-8"?>
<!-- Generator: Adobe Illustrator 25.1.0, SVG Export Plug-In . SVG Version: 6.00 Build 0)  -->
<svg version="1.1" id="Layer_1" xmlns="http://www.w3.org/2000/svg" xmlns:xlink="http://www.w3.org/1999/xlink" x="0px" y="0px"
	 viewBox="0 0 29 27" style="enable-background:new 0 0 29 27;" xml:space="preserve">
<style type="text/css">
	.st0{fill:#575756;}
	.st1{fill:#00D173;}
</style>
<g>
	<g>
		<path class="st0" d="M11.5,27c-1.49,0-2.69-1.22-2.69-2.72c0-0.34,0.28-0.62,0.62-0.62s0.62,0.28,0.62,0.62
			c0,0.81,0.65,1.47,1.46,1.47c0.8,0,1.46-0.66,1.46-1.47c0-0.34,0.28-0.62,0.62-0.62s0.62,0.28,0.62,0.62
			C14.19,25.78,12.98,27,11.5,27z"/>
	</g>
	<g>
		<path class="st0" d="M22.64,27c-1.49,0-2.7-1.22-2.7-2.72c0-0.34,0.28-0.62,0.62-0.62s0.62,0.28,0.62,0.62
			c0,0.81,0.65,1.47,1.46,1.47c0.8,0,1.46-0.66,1.46-1.47c0-0.34,0.28-0.62,0.62-0.62c0.34,0,0.62,0.28,0.62,0.62
			C25.33,25.78,24.12,27,22.64,27z"/>
	</g>
	<g>
		<path class="st1" d="M17.28,2.59c4.02,0,6.12,2.83,6.12,5.62h0.99c0-3.09-2.32-6.36-6.61-6.6V0.5c0-0.28-0.22-0.5-0.5-0.5
			c-0.27,0-0.5,0.22-0.5,0.5v1.12c-4.29,0.24-6.61,3.51-6.61,6.6h0.99C11.17,5.42,13.27,2.59,17.28,2.59z"/>
		<path class="st1" d="M24.57,8.93H10c-0.59,0-1.07,0.48-1.07,1.08v1.67h0.99v-1.67c0-0.05,0.04-0.08,0.08-0.08h14.57
			c0.04,0,0.08,0.04,0.08,0.08v1.67h0.99v-1.67C25.64,9.41,25.16,8.93,24.57,8.93z"/>
	</g>
	<g>
		<path class="st0" d="M27.81,23.54H6.85c-1.16,0-2.11-0.95-2.11-2.13V3.97c0-0.26-0.2-0.46-0.45-0.46H0.62C0.28,3.5,0,3.22,0,2.88
			s0.28-0.62,0.62-0.62h3.66c0.93,0,1.69,0.77,1.69,1.71v17.44c0,0.49,0.39,0.88,0.87,0.88h20.96l-0.04-9.99H7.08
			c-0.34,0-0.62-0.28-0.62-0.62s0.28-0.62,0.62-0.62h21.3c0.34,0,0.62,0.28,0.62,0.62v10.66C29,23,28.47,23.54,27.81,23.54z"/>
	</g>
</g>
</svg>
