<?xml version="1.0" encoding="utf-8"?>
<!-- Generator: Adobe Illustrator 25.1.0, SVG Export Plug-In . SVG Version: 6.00 Build 0)  -->
<svg version="1.1" id="Layer_1" xmlns="http://www.w3.org/2000/svg" xmlns:xlink="http://www.w3.org/1999/xlink" x="0px" y="0px"
	 viewBox="0 0 22.2 13.5" style="enable-background:new 0 0 22.2 13.5;" xml:space="preserve">
<style type="text/css">
	.st0{fill:#00D173;}
</style>
<path class="st0" d="M11.1,1.35c2.84,0,5.24,1.3,6.75,2.39c1.8,1.29,2.72,2.54,2.96,3.01c-0.24,0.48-1.16,1.72-2.96,3.01
	c-1.51,1.09-3.92,2.39-6.75,2.39c-2.84,0-5.24-1.3-6.75-2.39C2.55,8.47,1.63,7.23,1.39,6.75c0.24-0.48,1.16-1.72,2.96-3.01
	C5.86,2.65,8.26,1.35,11.1,1.35 M11.1,0C4.97,0,0,5.4,0,6.75C0,8.1,4.97,13.5,11.1,13.5c6.13,0,11.1-5.4,11.1-6.75
	C22.2,5.4,17.23,0,11.1,0L11.1,0z M11.1,2.7c-2.23,0-4.04,1.81-4.04,4.05c0,2.24,1.81,4.05,4.04,4.05c2.23,0,4.04-1.81,4.04-4.05
	C15.14,4.51,13.33,2.7,11.1,2.7z M10.01,6.75c-0.94,0-1.71-0.77-1.71-1.71s0.76-1.71,1.71-1.71c0.94,0,1.71,0.77,1.71,1.71
	S10.96,6.75,10.01,6.75z"/>
</svg>
