<?xml version="1.0" encoding="utf-8"?>
<!-- Generator: Adobe Illustrator 25.1.0, SVG Export Plug-In . SVG Version: 6.00 Build 0)  -->
<svg version="1.1" id="Layer_1" xmlns="http://www.w3.org/2000/svg" xmlns:xlink="http://www.w3.org/1999/xlink" x="0px" y="0px"
	 viewBox="0 0 18 28" style="enable-background:new 0 0 18 28;" xml:space="preserve">
<style type="text/css">
	.st0{fill:#B3B3B3;}
	.st1{fill:#FFFFFF;}
	.st2{fill:#BCBEC0;}
</style>
<g>
	<g>
		<path class="st0" d="M9,25.16c-0.15,0-0.29-0.07-0.38-0.18C8.27,24.54,0,14.13,0,9.2C0,4.13,4.04,0,9,0s9,4.13,9,9.2
			c0,4.93-8.27,15.34-8.62,15.78C9.29,25.09,9.15,25.16,9,25.16z M9,1C4.58,1,0.98,4.68,0.98,9.2c0,4.01,6.38,12.53,8.02,14.66
			c1.64-2.12,8.02-10.65,8.02-14.66C17.02,4.68,13.42,1,9,1z"/>
	</g>
	<g>
		<ellipse class="st1" cx="9" cy="9.18" rx="3.71" ry="3.79"/>
		<path class="st2" d="M9,13.47c-2.31,0-4.2-1.93-4.2-4.29S6.69,4.89,9,4.89s4.2,1.93,4.2,4.29S11.31,13.47,9,13.47z M9,5.89
			c-1.77,0-3.22,1.48-3.22,3.29S7.23,12.47,9,12.47s3.22-1.48,3.22-3.29S10.77,5.89,9,5.89z"/>
	</g>
	<g>
		<path class="st2" d="M13.76,28H4.24c-0.27,0-0.49-0.22-0.49-0.5c0-0.28,0.22-0.5,0.49-0.5h9.53c0.27,0,0.49,0.22,0.49,0.5
			C14.25,27.78,14.03,28,13.76,28z"/>
	</g>
</g>
</svg>
