<?xml version="1.0" encoding="utf-8"?>
<!-- Generator: Adobe Illustrator 25.1.0, SVG Export Plug-In . SVG Version: 6.00 Build 0)  -->
<svg version="1.1" id="Layer_1" xmlns="http://www.w3.org/2000/svg" xmlns:xlink="http://www.w3.org/1999/xlink" x="0px" y="0px"
	 viewBox="0 0 20.7 25" style="enable-background:new 0 0 20.7 25;" xml:space="preserve">
<style type="text/css">
	.st0{fill:#B3B3B3;}
</style>
<g>
	<g>
		<path class="st0" d="M10.35,10.85C7.45,10.85,5,8.3,5,5.28C5,2.37,7.4,0,10.35,0s5.35,2.37,5.35,5.28
			C15.7,8.3,13.25,10.85,10.35,10.85z M10.35,0.99c-2.4,0-4.36,1.93-4.36,4.29c0,2.44,2.04,4.58,4.36,4.58s4.36-2.14,4.36-4.58
			C14.71,2.91,12.75,0.99,10.35,0.99z"/>
	</g>
	<g>
		<path class="st0" d="M19.15,25H1.55C0.7,25,0,24.31,0,23.47V18.3c0-4,3.29-7.25,7.33-7.25h6.05c4.04,0,7.33,3.25,7.33,7.25v5.17
			C20.7,24.31,20,25,19.15,25z M7.33,12.03C3.84,12.03,1,14.84,1,18.3v5.17c0,0.3,0.25,0.55,0.55,0.55h17.6
			c0.3,0,0.55-0.24,0.55-0.55V18.3c0-3.45-2.84-6.26-6.33-6.26H7.33z"/>
	</g>
</g>
</svg>
