<?xml version="1.0" encoding="utf-8"?>
<!-- Generator: Adobe Illustrator 25.1.0, SVG Export Plug-In . SVG Version: 6.00 Build 0)  -->
<svg version="1.1" id="Layer_1" xmlns="http://www.w3.org/2000/svg" xmlns:xlink="http://www.w3.org/1999/xlink" x="0px" y="0px"
	 viewBox="0 0 21 20.7" style="enable-background:new 0 0 21 20.7;" xml:space="preserve">
<style type="text/css">
	.st0{fill:#575756;}
</style>
<g>
	<g>
		<path class="st0" d="M7.84,9.3c-2.23,0-4.12-2.18-4.12-4.77C3.72,2.03,5.57,0,7.84,0s4.12,2.03,4.12,4.53
			C11.96,7.11,10.07,9.3,7.84,9.3z M7.84,1C6.12,1,4.72,2.58,4.72,4.53c0,2.01,1.46,3.77,3.12,3.77s3.12-1.76,3.12-3.77
			C10.96,2.58,9.56,1,7.84,1z"/>
	</g>
	<g>
		<path class="st0" d="M14.24,20.7H1.44C0.65,20.7,0,20.05,0,19.26v-2.72c0-3.65,2.96-6.61,6.6-6.61h2.48c0.33,0,0.67,0.03,1,0.08
			c0.27,0.04,0.46,0.3,0.42,0.57c-0.04,0.27-0.3,0.46-0.57,0.42c-0.28-0.04-0.57-0.06-0.85-0.06H6.6c-3.09,0-5.6,2.52-5.6,5.61v2.72
			c0,0.24,0.2,0.44,0.44,0.44h12.8c0.24,0,0.44-0.2,0.44-0.44v-1.89c0-0.28,0.22-0.5,0.5-0.5s0.5,0.22,0.5,0.5v1.89
			C15.68,20.05,15.03,20.7,14.24,20.7z"/>
	</g>
	<g>
		<path class="st0" d="M3.7,20.7c-0.28,0-0.5-0.22-0.5-0.5v-3.85c0-0.28,0.22-0.5,0.5-0.5s0.5,0.22,0.5,0.5v3.85
			C4.2,20.48,3.98,20.7,3.7,20.7z"/>
	</g>
	<g>
		<path class="st0" d="M11.98,20.7c-0.28,0-0.5-0.22-0.5-0.5v-3.85c0-0.28,0.22-0.5,0.5-0.5s0.5,0.22,0.5,0.5v3.85
			C12.48,20.48,12.26,20.7,11.98,20.7z"/>
	</g>
	<g>
		<path class="st0" d="M16.08,16.33c-2.72,0-4.92-2.21-4.92-4.93s2.21-4.93,4.92-4.93S21,8.68,21,11.4S18.79,16.33,16.08,16.33z
			 M16.08,7.47c-2.16,0-3.92,1.76-3.92,3.93c0,2.17,1.76,3.93,3.92,3.93S20,13.56,20,11.4C20,9.23,18.24,7.47,16.08,7.47z"/>
	</g>
	<g>
		<path class="st0" d="M16.08,13.99c-0.28,0-0.5-0.22-0.5-0.5V9.3c0-0.28,0.22-0.5,0.5-0.5s0.5,0.22,0.5,0.5v4.19
			C16.58,13.77,16.35,13.99,16.08,13.99z"/>
	</g>
	<g>
		<path class="st0" d="M18.17,11.9h-4.18c-0.28,0-0.5-0.22-0.5-0.5s0.22-0.5,0.5-0.5h4.18c0.28,0,0.5,0.22,0.5,0.5
			S18.44,11.9,18.17,11.9z"/>
	</g>
</g>
</svg>
