<?xml version="1.0" encoding="utf-8"?>
<!-- Generator: Adobe Illustrator 25.1.0, SVG Export Plug-In . SVG Version: 6.00 Build 0)  -->
<svg version="1.1" id="Layer_1" xmlns="http://www.w3.org/2000/svg" xmlns:xlink="http://www.w3.org/1999/xlink" x="0px" y="0px"
	 viewBox="0 0 28.75 28.25" style="enable-background:new 0 0 28.75 28.25;" xml:space="preserve">
<style type="text/css">
	.st0{fill:#575756;}
	.st1{fill:#FF459E;}
</style>
<g>
	<g>
		<path class="st0" d="M10.72,12.62c-3.04,0-5.6-2.96-5.6-6.47C5.12,2.76,7.63,0,10.72,0s5.6,2.76,5.6,6.14
			C16.32,9.65,13.75,12.62,10.72,12.62z M10.72,1.25c-2.4,0-4.35,2.2-4.35,4.9c0,2.78,2.03,5.23,4.35,5.23s4.35-2.44,4.35-5.23
			C15.07,3.44,13.12,1.25,10.72,1.25z"/>
	</g>
	<g>
		<path class="st0" d="M19.52,28.25H1.92C0.86,28.25,0,27.39,0,26.34V22.6c0-4.96,4.04-9,9.01-9h3.41c0.46,0,0.92,0.03,1.37,0.1
			c0.34,0.05,0.58,0.37,0.52,0.71c-0.05,0.34-0.37,0.58-0.71,0.52c-0.39-0.06-0.78-0.09-1.18-0.09H9.01c-4.28,0-7.76,3.48-7.76,7.75
			v3.73c0,0.37,0.3,0.66,0.66,0.66h17.6c0.37,0,0.66-0.3,0.66-0.66v-2.59c0-0.34,0.28-0.62,0.63-0.62c0.34,0,0.63,0.28,0.63,0.62
			v2.59C21.43,27.39,20.57,28.25,19.52,28.25z"/>
	</g>
	<g>
		<path class="st0" d="M5.02,28.25c-0.35,0-0.63-0.28-0.63-0.62v-5.28c0-0.34,0.28-0.62,0.63-0.62S5.65,22,5.65,22.35v5.28
			C5.65,27.97,5.37,28.25,5.02,28.25z"/>
	</g>
	<g>
		<path class="st0" d="M16.41,28.25c-0.34,0-0.63-0.28-0.63-0.62v-5.28c0-0.34,0.28-0.62,0.63-0.62c0.34,0,0.63,0.28,0.63,0.62v5.28
			C17.04,27.97,16.75,28.25,16.41,28.25z"/>
	</g>
	<g>
		<path class="st0" d="M22.04,22.26c-3.7,0-6.71-3.01-6.71-6.7c0-3.69,3.01-6.7,6.71-6.7s6.71,3.01,6.71,6.7
			C28.75,19.25,25.74,22.26,22.04,22.26z M22.04,10.11c-3.01,0-5.46,2.45-5.46,5.45s2.45,5.45,5.46,5.45s5.46-2.44,5.46-5.45
			S25.05,10.11,22.04,10.11z"/>
	</g>
	<g>
		<path class="st1" d="M22.04,19.61c-0.12,0-0.24-0.03-0.34-0.1c-0.07-0.04-1.64-1.08-2.17-1.47c-0.51-0.38-0.82-1.05-0.82-1.79
			v-2.89c0-0.17,0.07-0.34,0.2-0.46c0.13-0.12,0.31-0.18,0.47-0.17c0.77,0.05,1.89-0.75,2.25-1.06c0.24-0.21,0.59-0.21,0.83,0
			c0.36,0.31,1.49,1.11,2.25,1.06c0.17-0.01,0.34,0.05,0.47,0.17c0.13,0.12,0.2,0.28,0.2,0.46v2.89c0,0.74-0.3,1.41-0.81,1.79
			c-0.53,0.39-2.1,1.43-2.17,1.47C22.28,19.57,22.16,19.61,22.04,19.61z M19.96,13.93v2.31c0,0.34,0.12,0.65,0.31,0.79
			c0.36,0.26,1.27,0.87,1.77,1.2c0.5-0.33,1.41-0.94,1.77-1.2c0.19-0.14,0.31-0.45,0.31-0.79v-2.31c-0.83-0.15-1.61-0.64-2.08-0.99
			C21.57,13.29,20.79,13.78,19.96,13.93z"/>
	</g>
</g>
</svg>
