<?xml version="1.0" encoding="utf-8"?>
<!-- Generator: Adobe Illustrator 25.1.0, SVG Export Plug-In . SVG Version: 6.00 Build 0)  -->
<svg version="1.1" id="Layer_1" xmlns="http://www.w3.org/2000/svg" xmlns:xlink="http://www.w3.org/1999/xlink" x="0px" y="0px"
	 viewBox="0 0 21 28" style="enable-background:new 0 0 21 28;" xml:space="preserve">
<style type="text/css">
	.st0{fill:#B3B3B3;}
</style>
<g>
	<path class="st0" d="M15.61,28c-0.51,0-1.03-0.06-1.57-0.18c-0.12-0.03-0.25-0.06-0.37-0.09c0,0,0,0,0,0
		c-4.16-1.11-8.26-5.49-10.48-9.33C0.95,14.52-0.87,8.45,0.44,4.29c0.6-1.89,1.77-3.25,3.49-4.05c1.3-0.6,3.4,0.08,3.81,0.22
		c0.32,0.11,0.55,0.39,0.6,0.73c0.98,6.87,0.87,7.28,0.82,7.47c-0.08,0.28-0.21,0.79-2.88,2.34c0,0,0,0,0,0
		c0,0.04,0.01,0.12,0.05,0.25c0.03,0.09,0.05,0.18,0.05,0.27c0.02,1.03,3.46,7.04,4.28,7.49c0.11,0.05,0.2,0.12,0.27,0.21
		c0.09,0.1,0.16,0.15,0.19,0.17c0,0,0,0,0,0c2.66-1.54,3.17-1.41,3.45-1.33c0.2,0.05,0.6,0.16,6.06,4.44
		c0.27,0.21,0.4,0.55,0.34,0.88c-0.11,0.6-0.57,2.62-1.71,3.42C18.17,27.6,16.94,28,15.61,28z M13.92,26.78
		c0.11,0.03,0.22,0.06,0.33,0.08c1.65,0.36,3.15,0.07,4.46-0.85c0.71-0.5,1.15-1.99,1.31-2.79c-4.75-3.67-5.56-4.14-5.7-4.19l0,0
		c-0.04-0.01-0.51-0.02-2.69,1.24c-0.24,0.19-0.82,0.32-1.43-0.37c-1.08-0.54-4.78-6.94-4.8-8.33c-0.34-1.01,0.29-1.35,0.36-1.39
		C8,8.87,8.2,8.45,8.2,8.43c0.02-0.13,0.02-1.07-0.84-7.09c-0.72-0.21-2.23-0.56-3.02-0.2C2.89,1.81,1.89,2.97,1.38,4.59
		C0.16,8.46,1.9,14.21,4.04,17.91C6.09,21.46,10.06,25.75,13.92,26.78L13.92,26.78z M11.05,19.47c-0.01,0-0.01,0.01-0.02,0.01
		C11.03,19.48,11.04,19.47,11.05,19.47z"/>
</g>
</svg>
