<?xml version="1.0" encoding="utf-8"?>
<!-- Generator: Adobe Illustrator 25.1.0, SVG Export Plug-In . SVG Version: 6.00 Build 0)  -->
<svg version="1.1" id="Layer_1" xmlns="http://www.w3.org/2000/svg" xmlns:xlink="http://www.w3.org/1999/xlink" x="0px" y="0px"
	 viewBox="0 0 25.4 25.4" style="enable-background:new 0 0 25.4 25.4;" xml:space="preserve">
<style type="text/css">
	.st0{fill:#B3B3B3;}
</style>
<g id="password">
	<g>
		<path class="st0" d="M14.67,8.9c-0.28,0-0.5-0.22-0.5-0.5V6.39c0-2.97-2.42-5.39-5.4-5.39c-2.98,0-5.4,2.42-5.4,5.39V8.4
			c0,0.28-0.22,0.5-0.5,0.5s-0.5-0.22-0.5-0.5V6.39C2.36,2.87,5.23,0,8.76,0s6.4,2.87,6.4,6.39V8.4C15.17,8.68,14.94,8.9,14.67,8.9z
			"/>
	</g>
	<g>
		<path class="st0" d="M15.45,25.4H2.07C0.93,25.4,0,24.47,0,23.33V9.58c0-0.28,0.22-0.5,0.5-0.5h16.53c0.28,0,0.5,0.22,0.5,0.5
			v3.54c0,0.28-0.22,0.5-0.5,0.5c-0.28,0-0.5-0.22-0.5-0.5v-3.04H1v13.25c0,0.59,0.48,1.07,1.07,1.07h13.38
			c0.59,0,1.07-0.48,1.07-1.07v-1.57c0-0.28,0.22-0.5,0.5-0.5c0.28,0,0.5,0.22,0.5,0.5v1.57C17.53,24.47,16.6,25.4,15.45,25.4z"/>
	</g>
	<g>
		<path class="st0" d="M8.76,21.86c-1.14,0-2.07-0.93-2.07-2.07v-1.96C6.19,17.3,5.9,16.6,5.9,15.87c0-1.58,1.28-2.86,2.86-2.86
			c0.28,0,0.5,0.22,0.5,0.5c0,0.28-0.22,0.5-0.5,0.5c-1.03,0-1.86,0.83-1.86,1.86c0,0.52,0.23,1.03,0.62,1.38
			c0.11,0.09,0.17,0.23,0.17,0.37v2.18c0,0.59,0.48,1.07,1.07,1.07c0.28,0,0.5,0.22,0.5,0.5C9.26,21.64,9.04,21.86,8.76,21.86z"/>
	</g>
	<g>
		<g>
			<path class="st0" d="M24.9,20.69H9.94c-0.28,0-0.5-0.22-0.5-0.5v-5.5c0-0.28,0.22-0.5,0.5-0.5H24.9c0.28,0,0.5,0.22,0.5,0.5v5.5
				C25.4,20.46,25.18,20.69,24.9,20.69z M10.44,19.69H24.4v-4.5H10.44V19.69z"/>
		</g>
		<g>
			<g>
				<g>
					<path class="st0" d="M13.49,17.94c-0.28,0-0.5-0.22-0.5-0.5v-0.79c0-0.28,0.22-0.5,0.5-0.5s0.5,0.22,0.5,0.5v0.79
						C13.99,17.71,13.76,17.94,13.49,17.94z"/>
				</g>
				<g>
					<path class="st0" d="M13.49,17.94c-0.05,0-0.11-0.01-0.16-0.03l-0.79-0.26c-0.26-0.09-0.4-0.37-0.32-0.63
						c0.09-0.26,0.37-0.4,0.63-0.32l0.79,0.26c0.26,0.09,0.4,0.37,0.32,0.63C13.89,17.8,13.7,17.94,13.49,17.94z"/>
				</g>
				<g>
					<path class="st0" d="M13.49,17.94c-0.21,0-0.4-0.13-0.47-0.34c-0.09-0.26,0.05-0.54,0.32-0.63l0.79-0.26
						c0.26-0.09,0.54,0.05,0.63,0.32c0.09,0.26-0.05,0.54-0.32,0.63l-0.79,0.26C13.59,17.93,13.54,17.94,13.49,17.94z"/>
				</g>
				<g>
					<path class="st0" d="M12.96,18.72c-0.1,0-0.19-0.03-0.28-0.08c-0.23-0.15-0.29-0.46-0.14-0.69l0.53-0.79
						c0.15-0.23,0.46-0.29,0.69-0.14c0.23,0.15,0.29,0.46,0.14,0.69l-0.53,0.79C13.28,18.64,13.12,18.72,12.96,18.72z"/>
				</g>
				<g>
					<path class="st0" d="M14.01,18.72c-0.16,0-0.32-0.08-0.42-0.22l-0.52-0.79c-0.15-0.23-0.09-0.54,0.14-0.69
						c0.23-0.15,0.54-0.09,0.69,0.14l0.52,0.79c0.15,0.23,0.09,0.54-0.14,0.69C14.2,18.69,14.11,18.72,14.01,18.72z"/>
				</g>
			</g>
			<g>
				<g>
					<path class="st0" d="M17.42,17.94c-0.28,0-0.5-0.22-0.5-0.5v-0.79c0-0.28,0.22-0.5,0.5-0.5c0.28,0,0.5,0.22,0.5,0.5v0.79
						C17.92,17.71,17.7,17.94,17.42,17.94z"/>
				</g>
				<g>
					<path class="st0" d="M17.42,17.94c-0.05,0-0.11-0.01-0.16-0.03l-0.79-0.26c-0.26-0.09-0.4-0.37-0.32-0.63
						c0.09-0.26,0.37-0.4,0.63-0.32l0.79,0.26c0.26,0.09,0.4,0.37,0.32,0.63C17.83,17.8,17.63,17.94,17.42,17.94z"/>
				</g>
				<g>
					<path class="st0" d="M17.42,17.94c-0.21,0-0.4-0.13-0.47-0.34c-0.09-0.26,0.05-0.54,0.32-0.63l0.79-0.26
						c0.26-0.09,0.54,0.05,0.63,0.32c0.09,0.26-0.05,0.54-0.32,0.63l-0.79,0.26C17.53,17.93,17.47,17.94,17.42,17.94z"/>
				</g>
				<g>
					<path class="st0" d="M16.9,18.72c-0.1,0-0.19-0.03-0.28-0.08c-0.23-0.15-0.29-0.46-0.14-0.69l0.52-0.79
						c0.15-0.23,0.46-0.29,0.69-0.14c0.23,0.15,0.29,0.46,0.14,0.69l-0.52,0.79C17.22,18.64,17.06,18.72,16.9,18.72z"/>
				</g>
				<g>
					<path class="st0" d="M17.95,18.72c-0.16,0-0.32-0.08-0.42-0.22l-0.53-0.79c-0.15-0.23-0.09-0.54,0.14-0.69
						c0.23-0.15,0.54-0.09,0.69,0.14l0.53,0.79c0.15,0.23,0.09,0.54-0.14,0.69C18.14,18.69,18.04,18.72,17.95,18.72z"/>
				</g>
			</g>
			<g>
				<g>
					<path class="st0" d="M21.36,17.94c-0.28,0-0.5-0.22-0.5-0.5v-0.79c0-0.28,0.22-0.5,0.5-0.5c0.28,0,0.5,0.22,0.5,0.5v0.79
						C21.86,17.71,21.63,17.94,21.36,17.94z"/>
				</g>
				<g>
					<path class="st0" d="M21.36,17.94c-0.05,0-0.11-0.01-0.16-0.03l-0.79-0.26c-0.26-0.09-0.4-0.37-0.32-0.63
						c0.09-0.26,0.37-0.4,0.63-0.32l0.79,0.26c0.26,0.09,0.4,0.37,0.32,0.63C21.76,17.8,21.57,17.94,21.36,17.94z"/>
				</g>
				<g>
					<path class="st0" d="M21.36,17.94c-0.21,0-0.4-0.13-0.47-0.34c-0.09-0.26,0.05-0.54,0.32-0.63l0.79-0.26
						c0.26-0.09,0.54,0.05,0.63,0.32c0.09,0.26-0.05,0.54-0.32,0.63l-0.79,0.26C21.46,17.93,21.41,17.94,21.36,17.94z"/>
				</g>
				<g>
					<path class="st0" d="M20.83,18.72c-0.1,0-0.19-0.03-0.28-0.08c-0.23-0.15-0.29-0.46-0.14-0.69l0.52-0.79
						c0.15-0.23,0.46-0.29,0.69-0.14c0.23,0.15,0.29,0.46,0.14,0.69l-0.52,0.79C21.15,18.64,20.99,18.72,20.83,18.72z"/>
				</g>
				<g>
					<path class="st0" d="M21.88,18.72c-0.16,0-0.32-0.08-0.42-0.22l-0.53-0.79c-0.15-0.23-0.09-0.54,0.14-0.69
						c0.23-0.15,0.54-0.09,0.69,0.14l0.53,0.79c0.15,0.23,0.09,0.54-0.14,0.69C22.08,18.69,21.98,18.72,21.88,18.72z"/>
				</g>
			</g>
		</g>
	</g>
</g>
</svg>
