<?xml version="1.0" encoding="utf-8"?>
<!-- Generator: Adobe Illustrator 25.1.0, SVG Export Plug-In . SVG Version: 6.00 Build 0)  -->
<svg version="1.1" id="Layer_1" xmlns="http://www.w3.org/2000/svg" xmlns:xlink="http://www.w3.org/1999/xlink" x="0px" y="0px"
	 viewBox="0 0 28.75 28.25" style="enable-background:new 0 0 28.75 28.25;" xml:space="preserve">
<style type="text/css">
	.st0{fill:#575756;}
	.st1{fill:#00D173;}
</style>
<g>
	<g>
		<path class="st0" d="M10.72,12.62c-3.04,0-5.6-2.96-5.6-6.47C5.12,2.76,7.63,0,10.72,0s5.6,2.76,5.6,6.14
			C16.32,9.65,13.75,12.62,10.72,12.62z M10.72,1.25c-2.4,0-4.35,2.2-4.35,4.89c0,2.78,2.03,5.22,4.35,5.22s4.35-2.44,4.35-5.22
			C15.07,3.45,13.12,1.25,10.72,1.25z"/>
	</g>
	<g>
		<path class="st0" d="M19.52,28.25H1.92C0.86,28.25,0,27.39,0,26.34V22.6c0-4.96,4.04-9,9.01-9h3.41c0.46,0,0.92,0.03,1.37,0.1
			c0.34,0.05,0.58,0.37,0.52,0.71s-0.37,0.57-0.71,0.52c-0.39-0.06-0.78-0.09-1.18-0.09H9.01c-4.28,0-7.76,3.48-7.76,7.75v3.73
			c0,0.37,0.3,0.66,0.67,0.66h17.6c0.37,0,0.67-0.3,0.67-0.66v-2.59c0-0.35,0.28-0.62,0.62-0.62s0.62,0.28,0.62,0.62v2.59
			C21.43,27.39,20.58,28.25,19.52,28.25z"/>
	</g>
	<g>
		<path class="st0" d="M5.02,28.25c-0.34,0-0.62-0.28-0.62-0.62v-5.28c0-0.35,0.28-0.62,0.62-0.62S5.65,22,5.65,22.35v5.28
			C5.65,27.97,5.37,28.25,5.02,28.25z"/>
	</g>
	<g>
		<path class="st0" d="M16.41,28.25c-0.34,0-0.62-0.28-0.62-0.62v-5.28c0-0.35,0.28-0.62,0.62-0.62s0.62,0.28,0.62,0.62v5.28
			C17.04,27.97,16.75,28.25,16.41,28.25z"/>
	</g>
	<g>
		<path class="st0" d="M22.04,22.26c-3.7,0-6.71-3.01-6.71-6.7s3.01-6.7,6.71-6.7s6.71,3.01,6.71,6.7S25.74,22.26,22.04,22.26z
			 M22.04,10.11c-3.01,0-5.46,2.44-5.46,5.45c0,3.01,2.45,5.45,5.46,5.45s5.46-2.44,5.46-5.45C27.5,12.55,25.05,10.11,22.04,10.11z"
			/>
	</g>
	<g>
		<path class="st1" d="M22.04,19.05c-0.34,0-0.62-0.28-0.62-0.62v-5.74c0-0.35,0.28-0.62,0.62-0.62s0.62,0.28,0.62,0.62v5.74
			C22.67,18.77,22.39,19.05,22.04,19.05z"/>
	</g>
	<g>
		<path class="st1" d="M24.91,16.18h-5.75c-0.34,0-0.62-0.28-0.62-0.62s0.28-0.62,0.62-0.62h5.75c0.34,0,0.62,0.28,0.62,0.62
			S25.26,16.18,24.91,16.18z"/>
	</g>
</g>
</svg>
