<?xml version="1.0" encoding="utf-8"?>
<!-- Generator: Adobe Illustrator 25.1.0, SVG Export Plug-In . SVG Version: 6.00 Build 0)  -->
<svg version="1.1" id="Layer_1" xmlns="http://www.w3.org/2000/svg" xmlns:xlink="http://www.w3.org/1999/xlink" x="0px" y="0px"
	 viewBox="0 0 25.4 19" style="enable-background:new 0 0 25.4 19;" xml:space="preserve">
<style type="text/css">
	.st0{fill:#B3B3B3;}
</style>
<g id="mail">
	<g>
		<path class="st0" d="M20.9,19H4.5C2.02,19,0,16.98,0,14.5v-10C0,2.02,2.02,0,4.5,0h16.4c2.48,0,4.5,2.02,4.5,4.5v10
			C25.4,16.98,23.38,19,20.9,19z M4.5,1C2.57,1,1,2.57,1,4.5v10C1,16.43,2.57,18,4.5,18h16.4c1.93,0,3.5-1.57,3.5-3.5v-10
			c0-1.93-1.57-3.5-3.5-3.5H4.5z"/>
	</g>
	<g>
		<g>
			<path class="st0" d="M2.86,15.87c-0.15,0-0.31-0.07-0.4-0.2c-0.16-0.22-0.11-0.54,0.11-0.7l7.48-5.48
				c0.22-0.16,0.53-0.12,0.7,0.11c0.16,0.22,0.11,0.54-0.11,0.7l-7.48,5.48C3.07,15.84,2.96,15.87,2.86,15.87z"/>
		</g>
		<g>
			<path class="st0" d="M22.54,15.87c-0.1,0-0.21-0.03-0.3-0.1l-7.48-5.48c-0.22-0.16-0.27-0.48-0.11-0.7
				c0.16-0.22,0.48-0.27,0.7-0.11l7.48,5.48c0.22,0.16,0.27,0.48,0.11,0.7C22.84,15.8,22.69,15.87,22.54,15.87z"/>
		</g>
	</g>
	<g>
		<path class="st0" d="M12.7,11.39c-0.83,0-1.67-0.28-2.35-0.85L2.54,4.01C2.33,3.84,2.3,3.52,2.48,3.31
			c0.18-0.21,0.49-0.24,0.7-0.06L11,9.77c0.99,0.82,2.42,0.82,3.41,0l7.81-6.53c0.21-0.18,0.53-0.15,0.7,0.06
			c0.18,0.21,0.15,0.53-0.06,0.7l-7.81,6.53C14.37,11.11,13.53,11.39,12.7,11.39z"/>
	</g>
</g>
</svg>
