<?xml version="1.0" encoding="utf-8"?>
<!-- Generator: Adobe Illustrator 25.1.0, SVG Export Plug-In . SVG Version: 6.00 Build 0)  -->
<svg version="1.1" id="Layer_1" xmlns="http://www.w3.org/2000/svg" xmlns:xlink="http://www.w3.org/1999/xlink" x="0px" y="0px"
	 viewBox="0 0 18 18" style="enable-background:new 0 0 18 18;" xml:space="preserve">
<style type="text/css">
	.st0{fill:#00D173;}
	.st1{fill:#287B44;}
</style>
<g>
	<ellipse transform="matrix(0.9899 -0.1421 0.1421 0.9899 -1.1873 1.3699)" class="st0" cx="9" cy="9" rx="8.31" ry="8.31"/>
	<path class="st1" d="M9,0C4.04,0,0,4.04,0,9c0,4.96,4.04,9,9,9s9-4.04,9-9C18,4.04,13.96,0,9,0z M9,16.62
		c-4.2,0-7.62-3.42-7.62-7.62C1.38,4.8,4.8,1.38,9,1.38S16.62,4.8,16.62,9C16.62,13.2,13.2,16.62,9,16.62z"/>
</g>
</svg>
