<?xml version="1.0" encoding="utf-8"?>
<!-- Generator: Adobe Illustrator 25.1.0, SVG Export Plug-In . SVG Version: 6.00 Build 0)  -->
<svg version="1.1" id="Layer_1" xmlns="http://www.w3.org/2000/svg" xmlns:xlink="http://www.w3.org/1999/xlink" x="0px" y="0px"
	 viewBox="0 0 200 36" style="enable-background:new 0 0 200 36;" xml:space="preserve">
<style type="text/css">
	.st0{fill:#00B456;}
	.st1{fill:#FFFFFF;}
</style>
<g>
	<g>
		<path class="st0" d="M182.1,1c9.32,0,16.9,7.58,16.9,16.9v0.19c0,9.32-7.58,16.9-16.9,16.9H17.9C8.58,35,1,27.42,1,18.1V17.9
			C1,8.58,8.58,1,17.9,1H182.1 M182.1,0H17.9C8.02,0,0,8.02,0,17.9v0.19C0,27.98,8.02,36,17.9,36H182.1c9.89,0,17.9-8.02,17.9-17.9
			V17.9C200,8.02,191.98,0,182.1,0L182.1,0z"/>
	</g>
	<g>
		<path id="XMLID_36_" class="st0" d="M35.68,18c0-9.94-7.99-18-17.84-18C7.99,0,0,8.06,0,18c0,9.94,7.99,18,17.84,18
			C27.69,36,35.68,27.94,35.68,18z"/>
		<g>
			<path class="st1" d="M28.57,16.51c-0.15-5.77-4.77-10.28-10.53-10.28c-5.66,0-10.28,4.43-10.53,10.09
				c-0.01,0.15-0.01,0.31-0.01,0.47c0,1.88,0.5,3.71,1.44,5.32c0.02,0.04,0.03,0.08,0.01,0.13l-1.87,5.56
				c-0.03,0.08,0.05,0.15,0.12,0.12l5.74-1.84c0.04-0.01,0.08-0.01,0.12,0.01c1.53,0.82,3.24,1.25,4.97,1.25
				c5.81,0,10.54-4.73,10.54-10.55C28.57,16.7,28.57,16.51,28.57,16.51z M10.92,21.53c-0.94-1.41-1.44-3.05-1.44-4.75
				c0-0.27,0.01-0.54,0.04-0.83c0.43-4.41,4.09-7.74,8.51-7.74c4.44,0,8.19,3.47,8.53,7.9c0.02,0.26,0.03,0.47,0.03,0.67
				c0,4.72-3.84,8.57-8.56,8.57c-1.26,0-2.49-0.28-3.61-0.8c-0.31-0.15-0.91-0.51-1.1-0.62c-0.04-0.02-0.08-0.03-0.13-0.01
				l-2.89,0.93c-0.07,0.02-0.13-0.04-0.11-0.11l0.93-2.78c0.02-0.05,0.01-0.1-0.02-0.14C11.05,21.72,10.96,21.59,10.92,21.53z"/>
		</g>
		<path class="st1" d="M23.04,19.13c-0.07-0.11-0.52-0.33-0.52-0.33c-0.18-0.09-1.5-0.74-1.75-0.83c-0.21-0.08-0.45-0.16-0.67,0.16
			c-0.16,0.24-0.64,0.81-0.8,0.99c-0.11,0.13-0.21,0.17-0.45,0.04c-0.04-0.02-1.22-0.53-2.03-1.25c-0.72-0.64-1.22-1.43-1.4-1.74
			c-0.11-0.19-0.04-0.28,0.1-0.42c0.08-0.08,0.46-0.54,0.49-0.58c0.06-0.09,0.17-0.31,0.17-0.31c0.11-0.21,0.04-0.4-0.02-0.52
			c-0.04-0.08-0.72-1.73-0.78-1.88c-0.19-0.46-0.4-0.49-0.6-0.48c-0.1,0.01-0.99,0.01-1.28,0.33l-0.05,0.05
			c-0.28,0.3-0.86,0.92-0.86,2.12c0,0.28,0.04,0.57,0.13,0.89c0.17,0.58,0.49,1.21,0.92,1.8c0.01,0.01,0.66,0.93,0.99,1.31
			c1.04,1.2,2.21,2.09,3.39,2.56c1.51,0.59,2.15,0.73,2.52,0.73c0.16,0,0.5-0.08,0.57-0.09c0.46-0.04,1.56-0.62,1.79-1.26
			C23.12,19.8,23.12,19.26,23.04,19.13z"/>
	</g>
</g>
</svg>
